<?xml version="1.0" encoding="utf-8"?>
<!-- Generator: Adobe Illustrator 18.1.0, SVG Export Plug-In . SVG Version: 6.00 Build 0)  -->
<svg version="1.1" id="Layer_1" xmlns="http://www.w3.org/2000/svg" xmlns:xlink="http://www.w3.org/1999/xlink" x="0px" y="0px"
	 viewBox="0 0 100 100" enable-background="new 0 0 100 100" xml:space="preserve">
<g>
	<path fill="none" stroke="#63585E" stroke-width="3" stroke-miterlimit="10" d="M43.1,88.8c0,0-18.5-4.9-5.4-18
		C50.9,57.6,61.9,43.2,61.7,34c-0.3-10.3-4.1-17.7-11.8-24.4c-7.5-6.4-19.3-5.9-19.3-5.9s18,0.5,20.1,15.7
		c2.1,15.2-7.7,19.5-15.7,26c-8.2,6.4-17.5,16.2-15.2,26.5c1.8,8.5,5.9,10.8,12.6,14.7C38.8,90.6,43.1,88.8,43.1,88.8z"/>
	<path fill="none" stroke="#63585E" stroke-width="3" stroke-miterlimit="10" d="M56.5,97.8c0,0-4.6-5.4,2.8-14.1
		c7.5-8.7,13.6-18.5,12.9-24.2C71.4,53,68.3,48.9,63.5,45c0,0,1.8,1.5,2.3,7.7c0.8,5.9-4.9,10.8-9.8,15.4c-4.6,4.6-10,11.1-8,17.5
		C50.1,90.3,56.5,97.8,56.5,97.8z"/>
</g>
</svg>
