<?xml version="1.0" encoding="utf-8"?>
<!-- Generator: Adobe Illustrator 18.1.0, SVG Export Plug-In . SVG Version: 6.00 Build 0)  -->
<svg version="1.1" id="Layer_1" xmlns="http://www.w3.org/2000/svg" xmlns:xlink="http://www.w3.org/1999/xlink" x="0px" y="0px"
	 viewBox="0 0 200 200" enable-background="new 0 0 200 200" xml:space="preserve">
<g id="bread_1_">
	<path fill="#62585E" d="M200,143.6c-0.6-12.8-14.6-22.8-38.2-27.6c-0.2,0-1.2,0-2.4-0.4c0-0.4,0-0.8,0-0.8
		c-0.6-12.2-13.2-22-35-26.8c-0.2,0-4.2,0-5.6,0.4c-2.6,0.8-5.6,2.6-5.8,2.6c0.2-0.4,0-3,0-3.6c-0.2-0.8-3-1.2-4.4-1.4
		C99,84.6,94,84.6,83,84.8c-0.2,0-4.2,1.8-4.2,1.8c-0.8,0.4-3.2,2.2-4.2,3c0-0.4-0.2-1.8-0.2-2.2c-0.2-1.2-4.2-1.4-5.2-1.4
		c-9.4,1-20.8,4.6-29.2,8c0,0-2.6,1.2-4.2,3.4c0-0.4,0-0.4-0.2-0.8c-0.6-1.2-1.4-1.4-2.4-1.2c-23,8.4-32.4,18.8-31.8,31.6
		c0.6,13,14.2,20.6,42,21c-0.8,2.6-1.4,4.4-1.2,7.4c0.6,14,16.4,20.2,49.4,20.2l0,0c8.8,0,19,0,31.2-0.8c24.4-1.8,42.2-4.4,54.6-8.8
		C193,161,200.2,153.6,200,143.6z M123.6,93.2C123.6,93.2,124,93.2,123.6,93.2c18,4,29.6,11.8,31.2,20.6c-11.4-1.8-24-2.2-36.8-1.2
		c-6.2,0.4-12.4,1.4-18.6,2.6c1.8-4,5.6-14,10.6-18C116.6,92,123.6,93.2,123.6,93.2z M95.8,109.8c-0.2,1.2-0.6,5.6-0.8,6.6
		c-23,5.2-43,15.4-50.6,26.6c-25.4-0.8-38.6-6-39.2-15.6c-0.2-8.4,8.8-18,25-25c-0.2,0.4-2.6,7-2.6,12.6c-0.2,5.2-0.6,12.2,1.2,12.2
		l0,0c1.4,0,1.8-2.2,2-3.6s0.6-9.2,1.4-12.6s4.6-10,4.6-10L48,96.2c6.2-1.8,12.6-3,19.4-4c-0.2,0.4-0.2,0.4-0.6,0.8
		c-0.2,0.4-1.8,2.2-3,4.8c-1.2,2.6-3.8,14.4-4.2,18c-0.2,3.6,0.6,8.4,2.4,8.4l0,0c1.4,0,3.6-10.4,3.8-11.8c0-0.8,0.6-5.2,3.6-10.4
		c3-5.2,4.6-6.6,7-8.4s7-3,7-3c8-0.4,15.8-0.4,23.2,0.4l-0.6,0.8C105.8,91.4,98,99.8,95.8,109.8z M175.6,161.4
		c-12,4-29.6,6.2-53.8,8.2c-11.8,1.2-22,0.8-30.8,0.8l0,0c-29.4,0-44.6-4.8-45-15c-0.6-9.2,8.8-15,26.4-26.2c-1.4,0.8,6.4-2.6,7-2.6
		c3.8,0,8.8,3,18.2,14.4c3.8,5.6,5.8,12.2,5.8,12.2c1.2,1.8,2.4,5.8,2.4,5.8c0.8-0.4,5-8.4-3-23.6c-1.8-3-9.4-10-10.6-10.6l-0.8-0.8
		c7.4-1.8,15-3.4,23.2-4h3c0.8,0.4,5.6,1.4,10.6,8.2c5,6.6,9.6,22.4,11.2,22.4c1.8-0.4,2-9.6,1.2-14.4c-0.2-1.4-0.8-2.6-1.2-3.6
		c0,0-2-4.8-3-6.2c0,0-5.2-7.4-5.6-7.4c6.8,0,20,1.2,20,1.2s3,0.8,4.6,1.4c1.8,0.8,6.8,6.2,6.8,6.2c4.4,5.8,10.6,20.2,10.6,20.2
		c1.8,0,3.6-7.4-0.2-17.4c-0.2-0.4-3.6-7-3.8-7.4c16.4,4.4,26.8,12.2,27,21C195.8,151,189.2,157,175.6,161.4z"/>
</g>
</svg>
