<?xml version="1.0" encoding="utf-8"?>
<!-- Generator: Adobe Illustrator 18.1.0, SVG Export Plug-In . SVG Version: 6.00 Build 0)  -->
<svg version="1.1" id="Layer_1" xmlns="http://www.w3.org/2000/svg" xmlns:xlink="http://www.w3.org/1999/xlink" x="0px" y="0px"
	 viewBox="0 0 200 200" enable-background="new 0 0 200 200" xml:space="preserve">
<g>
	<g>
		<path fill="#62585E" d="M142.6,163.6c-1.1,0-2.2-0.4-3-1.3c-1.7-1.7-1.7-4.4,0-6l13.9-13.9l-39.6-39.6c-1.7-1.7-1.7-4.4,0-6
			l39.6-39.6l-10.8-10.8L102.9,86c-0.8,0.8-1.9,1.3-3,1.3l0,0c-1.1,0-2.2-0.5-3-1.3L57.3,46.4L46.4,57.2l39.6,39.6
			c1.7,1.7,1.7,4.4,0,6l-39.6,39.6l10.8,10.8l39.6-39.6c1.6-1.6,4.4-1.6,6,0l27.7,27.7c1.7,1.7,1.7,4.4,0,6c-1.7,1.7-4.4,1.7-6,0
			l-24.7-24.7l-39.6,39.6c-0.8,0.8-1.9,1.3-3,1.3l0,0c-1.1,0-2.2-0.5-3-1.3l-16.9-16.9c-1.7-1.7-1.7-4.4,0-6L77,99.9L37.4,60.2
			c-0.8-0.8-1.2-1.9-1.2-3c0-1.1,0.4-2.2,1.2-3l16.9-16.9c1.7-1.7,4.4-1.7,6,0L99.9,77l39.6-39.6c1.7-1.7,4.4-1.7,6,0l16.9,16.9
			c0.8,0.8,1.3,1.9,1.3,3c0,1.1-0.5,2.2-1.3,3l-39.6,39.6l39.6,39.6c1.7,1.7,1.7,4.4,0,6l-16.9,16.9
			C144.8,163.2,143.7,163.6,142.6,163.6z"/>
	</g>
</g>
</svg>
