<?xml version="1.0" encoding="utf-8"?>
<!-- Generator: Adobe Illustrator 18.1.0, SVG Export Plug-In . SVG Version: 6.00 Build 0)  -->
<svg version="1.1" id="Layer_1" xmlns="http://www.w3.org/2000/svg" xmlns:xlink="http://www.w3.org/1999/xlink" x="0px" y="0px"
	 viewBox="-907.7 507.4 87.3 77.2" enable-background="new -907.7 507.4 87.3 77.2" xml:space="preserve">
<g>
	<path fill="#62585E" d="M-906.1,556.4c0.8,0,1.5-0.7,1.5-1.5c0-0.3-0.1-0.6-0.2-0.8l8.5-8.8c0.2,0.1,0.5,0.2,0.8,0.2
		c0.4,0,0.8-0.2,1.1-0.5l8,4.4c0,0.1-0.1,0.3-0.1,0.4c0,0.8,0.7,1.5,1.5,1.5c0.8,0,1.5-0.7,1.5-1.5c0-0.3-0.1-0.6-0.3-0.9l8.4-9.6
		c0.2,0.1,0.5,0.2,0.7,0.2c0.8,0,1.5-0.7,1.5-1.5c0-0.1,0-0.2,0-0.2l7.7-3.3c0.3,0.4,0.7,0.6,1.2,0.6c0.6,0,1.1-0.4,1.4-0.9l7.7,1.5
		c0,0.8,0.7,1.5,1.5,1.5c0.8,0,1.5-0.7,1.5-1.5c0-0.4-0.1-0.7-0.3-0.9l9-17.5c0.1,0,0.2,0,0.4,0c0.4,0,0.7-0.1,1-0.3l8,6.2
		c-0.1,0.2-0.1,0.4-0.1,0.6c0,0.8,0.7,1.5,1.5,1.5s1.5-0.7,1.5-1.5c0-0.4-0.1-0.7-0.4-1l8.9-12.3c0.2,0.1,0.4,0.1,0.6,0.1
		c0.8,0,1.5-0.7,1.5-1.5c0-0.8-0.7-1.5-1.5-1.5s-1.5,0.7-1.5,1.5c0,0.4,0.1,0.7,0.4,1l-8.9,12.3c-0.2-0.1-0.4-0.1-0.6-0.1
		c-0.4,0-0.7,0.1-1,0.3l-8-6.2c0.1-0.2,0.1-0.4,0.1-0.6c0-0.8-0.7-1.5-1.5-1.5c-0.8,0-1.5,0.7-1.5,1.5c0,0.5,0.2,0.9,0.5,1.2
		l-8.9,17.4c-0.2-0.1-0.4-0.1-0.6-0.1c-0.6,0-1.1,0.3-1.4,0.8l-7.8-1.5c0-0.8-0.7-1.5-1.5-1.5c-0.8,0-1.5,0.7-1.5,1.5
		c0,0.1,0,0.2,0,0.2l-7.7,3.3c-0.3-0.4-0.7-0.6-1.2-0.6c-0.8,0-1.5,0.7-1.5,1.5c0,0.3,0.1,0.6,0.3,0.9l-8.4,9.6
		c-0.2-0.1-0.5-0.2-0.7-0.2c-0.4,0-0.8,0.2-1.1,0.5l-8-4.4c0-0.1,0.1-0.3,0.1-0.4c0-0.8-0.7-1.5-1.5-1.5c-0.8,0-1.5,0.7-1.5,1.5
		c0,0.3,0.1,0.6,0.2,0.8l-8.5,8.8c-0.2-0.1-0.5-0.2-0.8-0.2c-0.8,0-1.5,0.7-1.5,1.5C-907.6,555.7-906.9,556.4-906.1,556.4z"/>
	<path fill="#62585E" d="M-821.9,562.3c-0.9,0-1.6,0.7-1.6,1.6c0,0.1,0,0.2,0,0.4l-7.9,3.9c-0.3-0.4-0.7-0.6-1.2-0.6
		c-0.9,0-1.6,0.7-1.6,1.6c0,0.1,0,0.1,0,0.2l-7.4,2.7c-0.3-0.4-0.8-0.7-1.3-0.7c-0.7,0-1.3,0.4-1.5,1l-7.5-0.9
		c-0.2-0.7-0.8-1.2-1.6-1.2c-0.8,0-1.5,0.6-1.6,1.3l-7.6,1.6c-0.2-0.6-0.8-1.1-1.5-1.1c-0.5,0-1,0.3-1.3,0.7l-7.7-4.1
		c0.2-0.3,0.3-0.6,0.3-0.9c0-0.9-0.7-1.6-1.6-1.6c-0.8,0-1.5,0.7-1.6,1.5l-7.2-1.5c0-0.9-0.7-1.6-1.6-1.6c-0.9,0-1.6,0.7-1.6,1.6
		c0,0.1,0,0.2,0,0.3l-7.8,3.2c-0.3-0.4-0.8-0.7-1.3-0.7c-0.9,0-1.6,0.7-1.6,1.6c0,0.4,0.1,0.7,0.3,0.9l-8.5,9.9
		c-0.2-0.1-0.5-0.2-0.7-0.2c-0.9,0-1.6,0.7-1.6,1.6c0,0.9,0.7,1.6,1.6,1.6c0.9,0,1.6-0.7,1.6-1.6c0-0.4-0.1-0.7-0.3-0.9l8.5-9.9
		c0.2,0.1,0.5,0.2,0.7,0.2c0.9,0,1.6-0.7,1.6-1.6c0-0.1,0-0.2,0-0.3l7.8-3.2c0.3,0.4,0.8,0.7,1.3,0.7c0.6,0,1.2-0.4,1.5-0.9l7.4,1.5
		c0.2,0.6,0.8,0.9,1.5,0.9c0.3,0,0.5-0.1,0.8-0.2l8,4.3c0,0.1,0,0.2,0,0.3c0,0.9,0.7,1.6,1.6,1.6c0.8,0,1.5-0.6,1.6-1.4l7.5-1.6
		c0.2,0.7,0.8,1.1,1.5,1.1c0.8,0,1.4-0.5,1.6-1.3l7.3,0.9c0.1,0.8,0.8,1.5,1.6,1.5c0.9,0,1.6-0.7,1.6-1.6c0-0.1,0-0.1,0-0.2l7.4-2.7
		c0.3,0.4,0.8,0.7,1.3,0.7c0.9,0,1.6-0.7,1.6-1.6c0-0.1,0-0.2,0-0.4l7.9-3.9c0.3,0.4,0.7,0.6,1.2,0.6c0.9,0,1.6-0.7,1.6-1.6
		C-820.3,563-821.1,562.3-821.9,562.3z"/>
	<path fill="#62585E" d="M-906.1,568.4c0.9,0,1.6-0.7,1.6-1.6c0-0.1,0-0.2,0-0.3l7.7-3.3c0.3,0.4,0.7,0.6,1.2,0.6
		c0.8,0,1.5-0.6,1.5-1.4l7.7-1.3c0.2,0.5,0.8,0.9,1.4,0.9c0.9,0,1.6-0.7,1.6-1.6c0-0.3-0.1-0.5-0.2-0.8l8.1-7.5
		c0.2,0.2,0.5,0.3,0.9,0.3c0.9,0,1.6-0.7,1.6-1.6c0,0,0,0,0,0l7.6-1.9c0.2,0.6,0.8,0.9,1.4,0.9c0.8,0,1.5-0.7,1.5-1.5l7.5-1
		c0.2,0.6,0.8,0.9,1.4,0.9c0.9,0,1.5-0.7,1.5-1.6c0-0.1,0-0.2,0-0.3l7.7-3.8c0.3,0.4,0.8,0.7,1.3,0.7c0.9,0,1.6-0.7,1.6-1.5
		c0-0.4-0.1-0.7-0.3-1l8.4-9.3c0.2,0.1,0.5,0.2,0.7,0.2c0.9,0,1.5-0.7,1.5-1.6c0-0.1,0-0.1,0-0.2l7.9-3.1c0.3,0.4,0.7,0.7,1.3,0.7
		c0.9,0,1.6-0.7,1.6-1.6s-0.7-1.6-1.6-1.6c-0.9,0-1.6,0.7-1.6,1.6c0,0.1,0,0.1,0,0.2l-7.9,3.1c-0.3-0.4-0.7-0.7-1.3-0.7
		c-0.9,0-1.6,0.7-1.6,1.6c0,0.3,0.1,0.6,0.3,0.9l-8.5,9.4c-0.2-0.1-0.4-0.1-0.6-0.1c-0.9,0-1.5,0.7-1.5,1.6c0,0.1,0,0.1,0,0.2
		l-7.7,3.8c-0.3-0.4-0.7-0.6-1.2-0.6c-0.8,0-1.5,0.6-1.5,1.4l-7.6,1c-0.2-0.5-0.8-0.9-1.4-0.9c-0.8,0-1.5,0.6-1.5,1.4l-7.6,1.9
		c-0.3-0.5-0.8-0.8-1.4-0.8c-0.9,0-1.5,0.7-1.5,1.5c0,0.3,0.1,0.5,0.2,0.8l-8.1,7.5c-0.2-0.2-0.5-0.3-0.9-0.3
		c-0.8,0-1.5,0.6-1.5,1.4l-7.7,1.3c-0.2-0.5-0.8-0.9-1.4-0.9c-0.9,0-1.6,0.7-1.6,1.5c0,0.1,0,0.2,0,0.3l-7.7,3.3
		c-0.3-0.4-0.7-0.6-1.2-0.6c-0.9,0-1.6,0.7-1.6,1.5C-907.6,567.7-906.9,568.4-906.1,568.4z"/>
</g>
</svg>
