<?xml version="1.0" encoding="utf-8"?>
<!-- Generator: Adobe Illustrator 18.1.0, SVG Export Plug-In . SVG Version: 6.00 Build 0)  -->
<svg version="1.1" id="Layer_1" xmlns="http://www.w3.org/2000/svg" xmlns:xlink="http://www.w3.org/1999/xlink" x="0px" y="0px"
	 viewBox="0 0 200 200" enable-background="new 0 0 200 200" xml:space="preserve">
<path fill="none" stroke="#63585E" stroke-width="5" stroke-miterlimit="10" d="M60.4,49.7"/>
<path fill="none" d="M60.7,62.4"/>
<g>
	<path fill="none" stroke="#63585E" stroke-width="5" stroke-miterlimit="10" d="M100,66c-19.2-18.5-48.8-16.5-63.2,0.6
		c-11.6,13.8-12.2,35.9,0,52.8l63.2,67.1"/>
</g>
<g>
	<path fill="none" stroke="#63585E" stroke-width="5" stroke-miterlimit="10" d="M96.7,65.6c19.2-18.5,48.8-16.5,63.2,0.6
		c11.6,13.8,12.2,35.9,0,52.8l-63.2,67.1"/>
</g>
<g>
	<line fill="none" stroke="#63585E" stroke-width="5" stroke-miterlimit="10" x1="45.9" y1="90.8" x2="84.4" y2="90.8"/>
	<line fill="#231F20" x1="45.9" y1="90.8" x2="84.4" y2="90.8"/>
	<line fill="none" stroke="#63585E" stroke-width="5" stroke-miterlimit="10" x1="45.9" y1="90.8" x2="84.4" y2="90.8"/>
	<line fill="#231F20" x1="45.9" y1="90.8" x2="84.4" y2="90.8"/>
	
		<line fill="none" stroke="#63585E" stroke-width="7" stroke-linecap="round" stroke-miterlimit="10" x1="45.9" y1="90.8" x2="84.4" y2="90.8"/>
</g>
<g>
	<line fill="none" stroke="#63585E" stroke-width="5" stroke-miterlimit="10" x1="65.1" y1="110" x2="65.1" y2="71.5"/>
	<line fill="#231F20" x1="65.1" y1="110" x2="65.1" y2="71.5"/>
	<line fill="none" stroke="#63585E" stroke-width="5" stroke-miterlimit="10" x1="65.1" y1="110" x2="65.1" y2="71.5"/>
	<line fill="#231F20" x1="65.1" y1="110" x2="65.1" y2="71.5"/>
	
		<line fill="none" stroke="#63585E" stroke-width="7" stroke-linecap="round" stroke-miterlimit="10" x1="65.1" y1="110" x2="65.1" y2="71.5"/>
</g>
</svg>
