<?xml version="1.0" encoding="utf-8"?>
<!-- Generator: Adobe Illustrator 18.1.0, SVG Export Plug-In . SVG Version: 6.00 Build 0)  -->
<svg version="1.1" id="Layer_1" xmlns="http://www.w3.org/2000/svg" xmlns:xlink="http://www.w3.org/1999/xlink" x="0px" y="0px"
	 viewBox="0 0 200 200" enable-background="new 0 0 200 200" xml:space="preserve">
<g id="Capa_35">
	<g>
		<path fill="#62585E" stroke="#62585E" stroke-width="2" stroke-miterlimit="10" d="M63.2,65C52,65,42.8,74.2,42.8,85.4
			s9.2,20.4,20.4,20.4s20.4-9.2,20.4-20.4S74.4,65,63.2,65z M63.2,102.8c-9.6,0-17.4-7.8-17.4-17.4S53.6,68,63.2,68
			s17.4,7.8,17.4,17.4C80.4,95,72.6,102.8,63.2,102.8z"/>
		<path fill="#62585E" stroke="#62585E" stroke-width="2" stroke-miterlimit="10" d="M97.2,115.4l5.2-7.2l14.2,2l4.4-13.8l-12.8-6.6
			V81l12.8-6.8l-4.6-13.8l-14.4,2l-5.2-7.2l6.4-13l-11.8-8.4L81.2,44l-8.4-2.6L70,27H55.4L53,41.2L44.6,44L34.2,34l-11.8,8.6
			l6.4,12.8L24,62.8l-14.2-2L5.4,74.6L18,81.4v8.8L5.2,97l4.8,13.8l14.2-2.2l5.2,7.2l-6.4,13l11.8,8.4L45,127l8.4,2.6l2.4,14.2h14.6
			l2.4-14.2l8.4-2.8l10.4,10l11.8-8.6L97.2,115.4z M82.4,123.2l-12,4l-2.2,13.4h-9.4l-2.4-13.4l-12-3.8l-9.8,9.6l-7.6-5.4l6-12.2
			l-7.4-10.2l-13.6,2l-3-8.8L21,92V79.4L8.8,73.2l2.8-9l13.6,2L32.6,56l-6.2-12.2l7.6-5.6l9.8,9.6l12-4L58,30.4h9.4l2.4,13.4l12,3.8
			l9.8-9.6l7.6,5.4l-6,12.2l7.4,10.2l13.6-2l3,8.8l-12,6.4v12.6l12.2,6.2l-2.8,9l-13.6-2L93.6,115l6.2,12.2l-7.6,5.6L82.4,123.2z"/>
		<path fill="#62585E" stroke="#62585E" stroke-width="2" stroke-miterlimit="10" d="M159.4,127.6l5-7.6l-8.2-8.2l-7.6,5l-5.6-2.4
			l-1.8-9h-11.8l-1.8,9l-5.6,2.4l-7.6-5l-8.6,8.2l5,7.6l-2.4,5.6l-9,1.8v11.8l9,1.8l2.4,5.6l-5,7.8l8.2,8.2l7.6-5l5.6,2.4l1.8,9
			h11.8l1.8-9l5.6-2.4l7.6,5l8.2-8.2l-5-7.6l2.4-5.6l9-1.8v-11.8l-9-1.8L159.4,127.6z M167.6,144.2l-8,1.8l-3.6,8.6l4.6,7l-4.8,4.8
			l-7-4.6l-8.6,3.6l-1.6,8.2H132l-1.6-8.2l-8.6-3.6l-7,4.6l-4.8-4.8l4.6-7l-3.8-8.6l-8.2-1.6v-6.6l8.2-1.6l3.6-8.6l-4.6-7l4.8-4.8
			l7,4.6l8.6-3.6l1.6-8.2h6.6l1.6,8.2l8.6,3.6l7-4.6l4.8,4.8l-4.4,6.6l3.6,8.6l8.2,1.6v6.8H167.6z"/>
		<path fill="#62585E" stroke="#62585E" stroke-width="2" stroke-miterlimit="10" d="M135,125.6c-8.4,0-15.4,7-15.4,15.4
			s7,15.4,15.4,15.4s15.4-7,15.4-15.4S143.6,125.6,135,125.6z M135,153.4c-6.8,0-12.2-5.6-12.2-12.2c0-6.8,5.6-12.4,12.2-12.4
			s12.4,5.6,12.4,12.4C147.4,147.8,141.8,153.4,135,153.4z"/>
		<path fill="#62585E" stroke="#62585E" stroke-width="2" stroke-miterlimit="10" d="M158.8,56.2c-8.4,0-15.4,7-15.4,15.4
			s7,15.4,15.4,15.4s15.4-7,15.4-15.4C174,63.2,167.2,56.2,158.8,56.2z M158.8,83.8c-6.8,0-12.4-5.6-12.4-12.2
			c0-6.8,5.6-12.4,12.4-12.4c6.8,0,12.2,5.6,12.2,12.4C171,78.4,165.4,83.8,158.8,83.8z"/>
		<path fill="#62585E" stroke="#62585E" stroke-width="2" stroke-miterlimit="10" d="M186.4,68.6l7.6-5l-4.4-10.8l-9,1.6l-4.2-4.4
			l1.8-9l-10.8-4.6l-5.2,7.6H156l-5-7.6l-10.8,4.4l1.6,9l-4.4,4.2l-9-1.8L123.8,63l7.6,5.2v6.2l-7.6,5l4.4,10.8l9-1.6l4.2,4.4
			l-1.8,9l10.8,4.6l5.2-7.6h6.2l5,7.6l10.8-4.4l-1.6-9l4.4-4.2l9,1.8L194,80l-7.6-5.2V68.6z M190,81.2l-2.6,6.2l-8.2-1.6l-6.8,6.6
			l1.4,8.2l-6.2,2.4l-4.2-7H154l-4.8,6.8L143,100l1.6-8.2L138,85l-8,1.6l-2.4-6.2l6.8-4.6v-9.4l-6.8-4.8l2.6-6.2l8.2,1.6l6.8-6.6
			l-1.4-8.2l6.2-2.4l4.6,7L164,47l4.8-6.8l6.2,2.6l-1.6,8.2l6.6,6.8l8.2-1.4l2.4,6.2l-7,4.6v9.4L190,81.2z"/>
	</g>
</g>
</svg>
