<?xml version="1.0" encoding="utf-8"?>
<!-- Generator: Adobe Illustrator 18.1.0, SVG Export Plug-In . SVG Version: 6.00 Build 0)  -->
<svg version="1.1" id="Layer_1" xmlns="http://www.w3.org/2000/svg" xmlns:xlink="http://www.w3.org/1999/xlink" x="0px" y="0px"
	 viewBox="0 0 200 200" enable-background="new 0 0 200 200" xml:space="preserve">
<g>
	<g>
		<path fill="#62585E" stroke="#62585E" stroke-miterlimit="10" d="M165.8,87.4c-0.2,9.2-0.8,22.6-3.2,26c-0.6,0.8-2,1.8-9,4.8l0,0
			c-18,8-58.6,23-59.2,23.2c-0.2,0.2-0.8,0-1.4,0l-63-23.8c-0.8-0.2-1.4-1.2-1.2-2L33,93l3.8,1.2L33,114.4l61,22.8
			c5.4-2,41.8-15.6,58.2-22.6l0,0c6.2-2.6,7.4-3.6,7.4-3.8c1.2-1.4,2-9.6,2.4-19.2L165.8,87.4z"/>
	</g>
	<g>
		<path fill="#62585E" stroke="#62585E" stroke-miterlimit="10" d="M98.8,116c-8.4,1-94.4-30.6-98-36c-0.2-0.6-0.6-1.4-0.2-2
			c0.2-1.2,0.8-3.6,23.6-13.8c25-11.4,66.6-26.8,73.2-26.8c7.2,0,92,20.6,101.2,30.2c0.8,0.8,1.2,1.8,1.2,2.6c0,1.8-0.2,5-33.2,19.8
			l0,0C139.4,102,103.4,115.8,98.8,116z M97,41.2c-4.8,0-43.8,14.4-71.4,26.6C11.2,74,6.4,77,5,78.2c10.4,6.2,87.4,34.4,93.4,33.8
			c3.8-0.2,38.8-13.4,66.2-25.6l0,0c24.8-11,29.6-15.2,30.4-16.4C189.2,63,105.6,41.2,97,41.2z"/>
	</g>
	<g>
		<path fill="#62585E" stroke="#62585E" stroke-miterlimit="10" d="M98.8,73c0-1.2,1.2-2,2.4-2c0.6,0,12.2,1.2,24.8,7.4
			c16.8,8.4,26.8,21.4,29,38.2c2.4,17.4,8.6,34,14.6,46.6c7.2,10.4,17.4,12,17.6,12c1.2,0.2,2,1.2,1.8,2.4c0,0.8-0.6,1.4-1.2,1.8
			c-0.2,0.2-0.8,0.2-1.2,0.2s-4.4-0.6-9.8-3.8c2.4,3.6,4.4,6.2,6,7.4c0.8,0.8,1.2,2,0.2,3.2c-0.2,0.2-0.6,0.6-0.8,0.6
			c-0.6,0.2-1.4,0.2-2.4-0.2c-1.8-1.4-4.4-4.8-7.4-9.6c0.6,4.8,0,6.8,0,7.2c-0.2,0.6-0.6,1.2-1.2,1.2c-0.6,0.2-0.8,0.2-1.4,0
			c-1.2-0.2-1.8-1.4-1.4-2.6c0,0,1.2-5-3.8-20c0-0.2,0-0.6,0-0.8c-6-12.6-11.6-28.4-13.8-45c-4.8-36.8-49.2-41.8-49.6-41.8
			C99.4,75.4,98.4,74.2,98.8,73z"/>
	</g>
</g>
</svg>
