<?xml version="1.0" encoding="utf-8"?>
<!-- Generator: Adobe Illustrator 18.1.0, SVG Export Plug-In . SVG Version: 6.00 Build 0)  -->
<svg version="1.1" id="Layer_1" xmlns="http://www.w3.org/2000/svg" xmlns:xlink="http://www.w3.org/1999/xlink" x="0px" y="0px"
	 viewBox="0 0 100 100" enable-background="new 0 0 100 100" xml:space="preserve">
<path d="M147.5,76.4"/>
<g>
	<g>
		<path fill="#62585E" stroke="#62585E" stroke-miterlimit="10" d="M82.9,43.7c-0.1,4.6-0.4,11.3-1.6,13c-0.3,0.4-1,0.9-4.5,2.4l0,0
			c-9,4-29.3,11.5-29.6,11.6c-0.1,0.1-0.4,0-0.7,0L15,58.8c-0.4-0.1-0.7-0.6-0.6-1l2.1-11.3l1.9,0.6l-1.9,10.1L47,68.6
			c2.7-1,20.9-7.8,29.1-11.3l0,0c3.1-1.3,3.7-1.8,3.7-1.9c0.6-0.7,1-4.8,1.2-9.6L82.9,43.7z"/>
	</g>
	<g>
		<path fill="#62585E" stroke="#62585E" stroke-miterlimit="10" d="M49.4,58C45.2,58.5,2.2,42.7,0.4,40c-0.1-0.3-0.3-0.7-0.1-1
			c0.1-0.6,0.4-1.8,11.8-6.9c12.5-5.7,33.3-13.4,36.6-13.4c3.6,0,46,10.3,50.6,15.1c0.4,0.4,0.6,0.9,0.6,1.3c0,0.9-0.1,2.5-16.6,9.9
			l0,0C69.7,51,51.7,57.9,49.4,58z M48.5,20.6c-2.4,0-21.9,7.2-35.7,13.3C5.6,37,3.2,38.5,2.5,39.1c5.2,3.1,43.7,17.2,46.7,16.9
			c1.9-0.1,19.4-6.7,33.1-12.8l0,0c12.4-5.5,14.8-7.6,15.2-8.2C94.6,31.5,52.8,20.6,48.5,20.6z"/>
	</g>
	<g>
		<path fill="#62585E" stroke="#62585E" stroke-miterlimit="10" d="M49.4,36.5c0-0.6,0.6-1,1.2-1c0.3,0,6.1,0.6,12.4,3.7
			c8.4,4.2,13.4,10.7,14.5,19.1c1.2,8.7,4.3,17,7.3,23.3c3.6,5.2,8.7,6,8.8,6c0.6,0.1,1,0.6,0.9,1.2c0,0.4-0.3,0.7-0.6,0.9
			c-0.1,0.1-0.4,0.1-0.6,0.1s-2.2-0.3-4.9-1.9c1.2,1.8,2.2,3.1,3,3.7c0.4,0.4,0.6,1,0.1,1.6c-0.1,0.1-0.3,0.3-0.4,0.3
			c-0.3,0.1-0.7,0.1-1.2-0.1c-0.9-0.7-2.2-2.4-3.7-4.8c0.3,2.4,0,3.4,0,3.6c-0.1,0.3-0.3,0.6-0.6,0.6c-0.3,0.1-0.4,0.1-0.7,0
			c-0.6-0.1-0.9-0.7-0.7-1.3c0,0,0.6-2.5-1.9-10c0-0.1,0-0.3,0-0.4c-3-6.3-5.8-14.2-6.9-22.5c-2.4-18.4-24.6-20.9-24.8-20.9
			C49.7,37.7,49.2,37.1,49.4,36.5z"/>
	</g>
</g>
<path fill="none" stroke="#62585E" stroke-width="3" stroke-miterlimit="10" d="M249.1,144.6"/>
<path fill="none" stroke="#62585E" stroke-width="3" stroke-miterlimit="10" d="M218.3,156"/>
<path fill="none" stroke="#62585E" stroke-width="3" stroke-miterlimit="10" d="M226.8,160.8c0,0-4.8-4-8.5-4.8
	c0.1,1.8,0.9,12.8,5.8,19.6c0.6,1.2-1.1,7,4.8,19.4c1.1,6,1.7,19.9,20.2,29.2c2.4-2.5,17.9-18.8,3.7-36.5c0.4-3,0.8-8.6-5.5-16.6
	c0.2-2.6,0.6-11.2-5.8-17.3"/>
<path fill="none" stroke="#62585E" stroke-width="3" stroke-miterlimit="10" d="M249.1,224.2c0,0-6.3-10.9-5.3-20.6
	c1-9.6,9-15.9,9-15.9"/>
<path fill="none" stroke="#62585E" stroke-width="3" stroke-miterlimit="10" d="M243.7,203.6c0,0-9.7-8.4-14.8-8.6"/>
<path fill="none" stroke="#62585E" stroke-width="3" stroke-miterlimit="10" d="M239.3,200.2c0,0-1.7-6.2-0.9-13.3
	c0.7-5.5,2.9-11.6,8.7-15.7"/>
<path fill="none" stroke="#62585E" stroke-width="3" stroke-miterlimit="10" d="M224.1,175.6c0,0,9,3.9,14.1,10.2"/>
<path fill="none" stroke="#62585E" stroke-width="3" stroke-miterlimit="10" d="M232.9,166"/>
<path fill="none" stroke="#62585E" stroke-width="3" stroke-miterlimit="10" d="M232.7,166.6c0,0-3.3,7.7,1.9,15.5"/>
</svg>
