<?xml version="1.0" encoding="utf-8"?>
<!-- Generator: Adobe Illustrator 18.1.0, SVG Export Plug-In . SVG Version: 6.00 Build 0)  -->
<svg version="1.1" id="Calque_1" xmlns="http://www.w3.org/2000/svg" xmlns:xlink="http://www.w3.org/1999/xlink" x="0px" y="0px"
	 viewBox="0 0 100 100" enable-background="new 0 0 100 100" xml:space="preserve">
<g>
	<g>
		<path fill="#62585E" d="M94.4,0.1h-5.7L51.8,37c-0.4-0.4-1-0.5-1.4-0.5c-0.5,0-1.1,0.1-1.4,0.5l-9.9,9.9c-0.5,0.5-1.6,1-2.6,1
			c-0.3,0-0.5,0-0.8-0.1L24,44.5c-0.3,0-0.5-0.1-0.8-0.1c-1,0-2,0.4-2.6,1L0.8,65.2c-0.8,0.8-1,2.2-0.5,3.1c0,0,5.6,10.3,13.2,18.1
			c7.8,7.8,18.1,13.2,18.1,13.2c0.4,0.1,0.8,0.3,1.2,0.3c0.7,0,1.5-0.3,2-0.8l19.9-19.9c0.8-0.8,1.2-2.3,1-3.4l-3.3-11.7
			c-0.3-1.1,0.1-2.6,1-3.4l9.9-9.9c0.8-0.8,0.8-2,0-2.9l-0.7-0.7l1.4-1.4l0.7,0.7l2.9-2.9v-1.4h1.4l2.9-2.9v-1.4h1.4l17-17v-1.4h1.4
			l8.6-8.6V5.7L94.4,0.1z M51.8,59.7c-1.4,1.4-1.9,3.5-1.4,5.3l3.3,11.7c0.1,0.4-0.1,1.1-0.4,1.4L33.4,98c-0.1,0-0.3,0.1-0.5,0.1
			c-0.1,0-0.3,0-0.3,0c-0.1,0-10.2-5.4-17.7-12.9C7.6,77.7,2.1,67.6,2,67.5s0-0.7,0.1-0.8L22,46.8c0.1-0.1,0.7-0.4,1.2-0.4
			c0.1,0,0.1,0,0.3,0l11.7,3.3c0.4,0.1,0.8,0.1,1.2,0.1c1.5,0,3-0.5,4.1-1.6l9.9-9.9l1.4,1.4L89.5,1.9h1l-44,44l1.4,1.4L93.2,1.9
			h0.3l0.8,0.8L48.8,48.2l1.4,1.4L95.6,4.1L97,5.4L50.9,51.6l1.8,1.8h3.7l4.5-4.5l0.7,0.7L51.8,59.7z M98.1,10.6l-7.3,7.3h-2.6v2.6
			L72.2,36.5h-2.6V39L68,40.7h-2.6v2.6l-0.8,0.8l-0.7-0.7l-4.2,4.2l0,0l-4,4h-1.4L98.2,7.7v2.9C98.2,10.6,98.1,10.6,98.1,10.6z
			 M36,51l-13.2-3.5L3,67.4c0,0.1,0.1,0.1,0.1,0.3c2.3,4,6.5,11.2,12.4,17c5.9,5.9,13.2,10.1,17,12.4c0.1,0,0.1,0.1,0.3,0.1
			l19.9-19.9l-3.5-13.2L36,51z M32.5,94.6c-4-2.3-10.3-6.3-15.5-11.4C11.8,78,7.8,71.6,5.5,67.6l17.8-17.8l11.6,3.1l12.3,12.3
			l3.1,11.6L32.5,94.6z M23.4,70.8c-1.5,0-3.1,0.5-4.2,1.8c-2.3,2.3-2.3,6.1,0,8.6c1.2,1.2,2.7,1.8,4.2,1.8s3.1-0.5,4.2-1.8
			c2.3-2.3,2.3-6.1,0-8.6C26.5,71.3,24.9,70.8,23.4,70.8z M26.2,79.6c-0.8,0.8-1.8,1.2-2.9,1.2c-1.1,0-2-0.4-2.9-1.2
			c-0.8-0.8-1.2-1.8-1.2-2.9s0.4-2,1.2-2.9c0.8-0.8,1.8-1.2,2.9-1.2c1.1,0,2,0.4,2.9,1.2c0.8,0.8,1.2,1.8,1.2,2.9
			S26.9,78.8,26.2,79.6z"/>
	</g>
</g>
</svg>
