<?xml version="1.0" encoding="utf-8"?>
<!-- Generator: Adobe Illustrator 18.1.0, SVG Export Plug-In . SVG Version: 6.00 Build 0)  -->
<svg version="1.1" id="Layer_1" xmlns="http://www.w3.org/2000/svg" xmlns:xlink="http://www.w3.org/1999/xlink" x="0px" y="0px"
	 viewBox="0 0 200 200" enable-background="new 0 0 200 200" xml:space="preserve">
<path fill="#62585E" d="M196.9,45.6c-0.8-0.4-1.2-0.4-2-0.4c-2,0-3.6,0.8-4.8,2.4c0,0.4-4.4,6.3-14.7,9.5c-3.6,1.2-9.1,1.6-15.5,2
	c-13.5,1.2-31.7,2.8-48.8,11.5c-25.4,13.1-28.2,36.9-26.2,47.6c1.2,5.2,4.4,8.3,7.5,10.3C81.8,146,87.3,171,87.3,171
	s-0.4-17.9,9.5-34.9c0,0.4,0.4,0.4,0.4,0.8c3.6,4.8,9.5,7.5,18.3,7.9h0.4h0.4c71.4-6.3,82.9-92.9,83.3-93.7
	C200.8,49.2,199.2,46.8,196.9,45.6z M116.7,140c-11.1-0.8-14.7-5.2-15.9-8.7c0.8-0.8,1.2-1.6,2-2.4c15.5-18.7,46-37.7,46-37.7
	s-37.7,16.3-52.4,33.3c-2.4-1.2-4.8-3.6-5.6-7.1c-1.6-7.5-0.8-29.4,23-41.7s50.4-9.9,63.1-13.5s17.9-11.9,17.9-11.9
	S184.6,133.7,116.7,140z"/>
<path fill="#62585E" d="M82.2,134.1c1.6-7.5-0.4-25-18.7-34.1c-11.9-6-24.6-7.1-33.7-7.9c-4.4-0.4-7.9-0.8-10.3-1.6
	c-6.3-2-8.7-5.6-9.1-5.6c-1.2-1.6-2.8-2.4-4.8-2.4c-0.8,0-1.2,0-2,0.4c-2.4,0.8-4,3.2-3.6,6c0,0.8,8.3,61.1,58.3,65.5h0.4h0.4
	c6.3-0.4,11.1-2.4,13.9-6.3c0,0,0,0,0-0.4c6,11.1,6,22.6,6,22.6s3.2-15.9-3.2-27.4C79,140.8,81.4,138.1,82.2,134.1z M77,132.9
	c-0.4,2.4-2,4-3.6,4.8c-9.9-11.5-31.3-19.4-31.3-19.4s15.9,9.5,27,21.8c0.4,0.4,0.8,1.2,1.6,2c-0.8,2.4-2.8,6-10.7,6.3
	c-46-4-53.2-60.7-53.2-60.7s3.6,5.6,12.3,7.9c8.7,2.4,27,0.8,42.9,9.1C77.4,113.1,77.8,128.1,77,132.9z"/>
</svg>
