<?xml version="1.0" encoding="utf-8"?>
<!-- Generator: Adobe Illustrator 18.1.0, SVG Export Plug-In . SVG Version: 6.00 Build 0)  -->
<svg version="1.1" id="Layer_1" xmlns="http://www.w3.org/2000/svg" xmlns:xlink="http://www.w3.org/1999/xlink" x="0px" y="0px"
	 viewBox="0 0 200 200" enable-background="new 0 0 200 200" xml:space="preserve">
<g>
	<g>
		<path fill="#FFFFFF" d="M56.3,82.1c0.1,0.1,0.1,0.1,0.1,0.1l5,1.8L61,78.6c-0.1-0.1-0.1-0.1-0.2-0.2L56.3,82.1z"/>
		<path fill="#FFFFFF" d="M34.9,72.3c0.9,0,1.8,0,2.8,0.1l0.9-6.9c-1.2-0.2-2.5-0.3-3.7-0.3c-6-0.2-12.1,1.4-17.4,4.4l4.3,6.7
			C25.6,73.8,30.2,72.4,34.9,72.3z"/>
		<path fill="#FFFFFF" d="M16.5,80.5c1.1-1.2,2.3-2.2,3.6-3.1l-4.3-6.8c-1.8,1.2-3.6,2.5-5.2,4c-6.2,5.9-10,14.2-10.6,22.8h9.4
			C9.6,91.2,12.1,85.1,16.5,80.5z"/>
		<path fill="#FFFFFF" d="M54,79.7c0.5,0.4,0.9,0.9,1.3,1.3l4.6-3.7c-0.5-0.6-1.1-1.3-1.7-1.9c-1.3-1.4-2.8-2.6-4.3-3.8l-3.5,5.2
			C51.6,77.6,52.9,78.6,54,79.7z"/>
		<path fill="#FFFFFF" d="M49,75.9l3.6-5.2c-3.6-2.4-7.7-4.1-12.1-4.9l-0.9,6.9C42.9,73.1,46.1,74.2,49,75.9z"/>
		<path fill="#FFFFFF" d="M34.9,123.1c-6.4,0.2-12.8-2.2-17.5-6.7c-4.6-4.3-7.4-10.3-7.8-16.7H0c0,8.8,3.6,17.7,9.8,24.1
			c6.4,6.7,15.6,10.8,25.1,11c9.4,0.2,19-3.5,25.9-10.2c0.3-0.3,0.6-0.6,0.9-0.9L51.1,116C46.9,120.3,41,122.9,34.9,123.1z"/>
	</g>
	<g>
		<path fill="#FFFFFF" d="M50.8,97.3c0,2.7-0.4,5.1-1.2,7.2c-0.8,2.1-1.9,3.8-3.3,5.2c-1.4,1.4-3.1,2.4-5,3.1
			c-1.9,0.7-4,1.1-6.2,1.1c-2.2,0-4.2-0.4-6.1-1.1c-1.9-0.7-3.6-1.8-5-3.1c-1.4-1.4-2.6-3.1-3.4-5.2c-0.8-2.1-1.2-4.5-1.2-7.2
			s0.4-5.1,1.3-7.2s2-3.8,3.5-5.2c1.5-1.4,3.1-2.5,5-3.2c1.9-0.7,3.9-1.1,6-1.1c2.2,0,4.2,0.4,6.1,1.1c1.9,0.7,3.6,1.8,5,3.2
			c1.4,1.4,2.6,3.1,3.4,5.2C50.4,92.2,50.8,94.5,50.8,97.3z M26.6,97.3c0,1.5,0.2,2.9,0.6,4.2c0.4,1.2,0.9,2.3,1.6,3.2
			c0.7,0.9,1.6,1.6,2.6,2.1c1.1,0.5,2.2,0.7,3.6,0.7c1.3,0,2.5-0.2,3.5-0.7s1.9-1.2,2.6-2.1c0.7-0.9,1.3-2,1.6-3.2
			c0.4-1.2,0.6-2.6,0.6-4.2c0-1.5-0.2-2.9-0.6-4.2c-0.4-1.3-0.9-2.3-1.6-3.2c-0.7-0.9-1.6-1.6-2.6-2.1s-2.2-0.7-3.5-0.7
			c-1.3,0-2.5,0.2-3.6,0.8c-1.1,0.5-1.9,1.2-2.6,2.1c-0.7,0.9-1.3,2-1.6,3.2C26.8,94.4,26.6,95.8,26.6,97.3z"/>
		<path fill="#FFFFFF" d="M70.2,95.1c-0.6-0.2-1.3-0.3-2.2-0.5c-0.8-0.2-1.7-0.2-2.6-0.2c-0.4,0-0.9,0.1-1.5,0.1
			c-0.6,0.1-1.1,0.2-1.3,0.2v18.4h-6.7V90.4c1.2-0.4,2.6-0.8,4.3-1.2c1.6-0.4,3.5-0.6,5.6-0.6c0.4,0,0.8,0,1.3,0.1
			c0.5,0.1,1.1,0.1,1.5,0.2c0.5,0.1,1.1,0.2,1.5,0.3c0.5,0.1,0.9,0.2,1.3,0.4L70.2,95.1z"/>
		<path fill="#FFFFFF" d="M81.9,82.2c0,1.2-0.4,2.2-1.2,2.9c-0.8,0.7-1.8,1.1-2.9,1.1s-2.1-0.4-2.9-1.1c-0.8-0.7-1.2-1.7-1.2-2.9
			c0-1.2,0.4-2.2,1.2-2.9c0.8-0.7,1.8-1.1,2.9-1.1s2.1,0.4,2.9,1.1C81.5,79.9,81.9,80.9,81.9,82.2z M81.2,113.1h-6.8V89.1h6.8V113.1
			z"/>
		<path fill="#FFFFFF" d="M107,110.2c0,3.9-1,6.9-3,8.7c-2,1.9-5.1,2.9-9.3,2.9c-1.5,0-2.9-0.1-4.4-0.4c-1.5-0.2-2.8-0.6-4-1.1
			l1.2-5.7c1.1,0.4,2.2,0.8,3.3,1c1.2,0.2,2.5,0.4,4,0.4c1.9,0,3.3-0.4,4.1-1.3c0.8-0.9,1.2-1.9,1.2-3.3v-0.9
			c-0.7,0.4-1.5,0.6-2.3,0.8c-0.8,0.2-1.6,0.2-2.5,0.2c-3.3,0-5.9-1-7.6-2.9c-1.8-1.9-2.6-4.7-2.6-8.3c0-1.8,0.3-3.3,0.8-4.8
			c0.5-1.5,1.3-2.7,2.4-3.7c1.1-1.1,2.3-1.8,3.9-2.4c1.5-0.6,3.2-0.8,5.2-0.8c0.8,0,1.6,0.1,2.5,0.1c0.9,0.1,1.7,0.2,2.6,0.3
			s1.6,0.3,2.5,0.4c0.8,0.2,1.5,0.4,2.1,0.5L107,110.2L107,110.2z M92,100.4c0,3.8,1.5,5.7,4.6,5.7c0.7,0,1.3-0.1,1.9-0.3
			c0.6-0.2,1.1-0.4,1.5-0.6V94.2c-0.4-0.1-0.7-0.1-1.2-0.2s-1-0.1-1.6-0.1c-1.8,0-3.1,0.6-4,1.8C92.5,97,92,98.5,92,100.4z"/>
		<path fill="#FFFFFF" d="M119.7,82.2c0,1.2-0.4,2.2-1.2,2.9c-0.8,0.7-1.8,1.1-2.9,1.1s-2.1-0.4-2.9-1.1c-0.8-0.7-1.2-1.7-1.2-2.9
			c0-1.2,0.4-2.2,1.2-2.9c0.8-0.7,1.8-1.1,2.9-1.1s2.1,0.4,2.9,1.1C119.3,79.9,119.7,80.9,119.7,82.2z M119.1,113.1h-6.8V89.1h6.8
			V113.1z"/>
		<path fill="#FFFFFF" d="M124.4,89.9c1.2-0.4,2.6-0.6,4.5-0.9c1.8-0.3,3.8-0.4,5.8-0.4c2.1,0,3.8,0.3,5.1,0.8
			c1.3,0.5,2.4,1.3,3.2,2.3c0.8,1,1.3,2.1,1.7,3.5c0.4,1.3,0.5,2.8,0.5,4.5v13.6h-6.8v-12.7c0-2.2-0.3-3.8-0.9-4.6
			c-0.6-0.9-1.6-1.3-3.2-1.3c-0.5,0-1,0-1.5,0.1s-1.1,0.1-1.5,0.2v18.5h-6.8L124.4,89.9L124.4,89.9z"/>
		<path fill="#FFFFFF" d="M185.4,113.6c-2-0.1-3.6-0.2-4.8-0.6c-1.2-0.4-2.2-0.9-2.9-1.6c-0.7-0.7-1.2-1.6-1.5-2.6
			c-0.2-1-0.4-2.2-0.4-3.5V80.6l6.8-1.1v24.4c0,0.6,0.1,1.2,0.1,1.6c0.1,0.5,0.3,0.9,0.5,1.2s0.6,0.6,1.1,0.8s1.1,0.4,1.9,0.4
			L185.4,113.6z"/>
		<path fill="#FFFFFF" d="M199.1,113.6c-2-0.1-3.6-0.2-4.8-0.6c-1.2-0.4-2.2-0.9-2.9-1.6s-1.2-1.6-1.5-2.6c-0.2-1-0.4-2.2-0.4-3.5
			V80.6l6.8-1.1v24.4c0,0.6,0.1,1.2,0.1,1.6c0.1,0.5,0.3,0.9,0.5,1.2s0.6,0.6,1.1,0.8s1.1,0.4,1.9,0.4L199.1,113.6z"/>
		<path fill="#FFFFFF" d="M171,112.5c-0.6,0.2-1.3,0.4-2.1,0.5s-1.6,0.3-2.5,0.4s-1.7,0.2-2.6,0.3s-1.7,0.1-2.5,0.1
			c-1.9,0-3.6-0.3-5.2-0.8c-1.5-0.6-2.8-1.3-3.9-2.4c-1.1-1.1-1.9-2.3-2.4-3.7c-0.5-1.5-0.8-3.1-0.8-4.8c0-3.5,0.9-6.3,2.6-8.3
			c1.8-1.9,4.3-2.9,7.6-2.9c0.9,0,1.8,0.1,2.5,0.2s1.5,0.4,2.3,0.8V91c0-1.3-0.4-2.5-1.2-3.3c-0.8-0.9-2.2-1.3-4.1-1.3
			c-1.5,0-2.8,0.1-4,0.4s-2.3,0.6-3.3,1l-1.2-5.7c1.2-0.4,2.6-0.8,4-1.1c1.5-0.2,2.9-0.4,4.4-0.4c4.2,0,7.3,0.9,9.3,2.9
			c2,1.9,3,4.8,3,8.7L171,112.5L171,112.5z M157.3,106.6c0.9,1.2,2.2,1.8,4,1.8c0.6,0,1.1,0,1.6-0.1c0.5-0.1,0.9-0.1,1.2-0.2V97.2
			c-0.4-0.2-0.9-0.5-1.5-0.6s-1.3-0.3-1.9-0.3c-3.1,0-4.6,1.9-4.6,5.7C156,103.9,156.5,105.4,157.3,106.6z"/>
	</g>
</g>
</svg>
