<?xml version="1.0" encoding="utf-8"?>
<!-- Generator: Adobe Illustrator 18.1.0, SVG Export Plug-In . SVG Version: 6.00 Build 0)  -->
<svg version="1.1" id="Layer_1" xmlns="http://www.w3.org/2000/svg" xmlns:xlink="http://www.w3.org/1999/xlink" x="0px" y="0px"
	 viewBox="0 0 200 100" enable-background="new 0 0 200 100" xml:space="preserve">
<g>
	<g>
		<path fill="#96BD3D" d="M57.6,32.6c0,0,0.1,0.1,0.1,0.1l4.8,1.7l-0.4-5.3c0-0.1-0.1-0.1-0.1-0.2L57.6,32.6z"/>
		<path fill="#96BD3D" d="M36.7,23c0.9,0,1.8,0,2.7,0.1l0.9-6.8c-1.2-0.2-2.4-0.3-3.6-0.3c-5.9-0.2-11.8,1.4-17,4.3l4.1,6.5
			C27.7,24.5,32.2,23.1,36.7,23z"/>
		<path fill="#96BD3D" d="M18.8,31c1.1-1.1,2.2-2.1,3.5-3.1l-4.2-6.6c-1.8,1.1-3.5,2.5-5,4C7.1,31,3.3,39.1,2.8,47.5H12
			C12.1,41.4,14.6,35.5,18.8,31z"/>
		<path fill="#96BD3D" d="M55.4,30.2c0.5,0.4,0.9,0.9,1.3,1.3l4.5-3.6c-0.5-0.6-1.1-1.3-1.6-1.9c-1.3-1.4-2.7-2.6-4.2-3.7l-3.5,5
			C53.1,28.2,54.3,29.1,55.4,30.2z"/>
		<path fill="#96BD3D" d="M50.5,26.5l3.5-5.1c-3.6-2.3-7.6-4-11.8-4.8l-0.9,6.7C44.5,23.8,47.7,24.9,50.5,26.5z"/>
		<path fill="#9ACA3C" d="M36.7,72.5c-6.2,0.2-12.5-2.1-17.1-6.5c-4.4-4.2-7.2-10-7.6-16.2H2.7c0,8.6,3.5,17.3,9.6,23.5
			c6.2,6.6,15.2,10.5,24.4,10.7c9.2,0.2,18.5-3.4,25.2-9.9c0.3-0.3,0.6-0.6,0.9-0.9l-10.3-7.5C48.5,69.8,42.7,72.3,36.7,72.5z"/>
	</g>
	<g>
		<path fill="#62585E" d="M52.3,47.4c0,2.6-0.4,5-1.2,7c-0.8,2-1.9,3.7-3.2,5c-1.4,1.4-3,2.4-4.9,3.1c-1.9,0.7-3.9,1-6.1,1
			c-2.1,0-4.1-0.3-6-1c-1.9-0.7-3.5-1.7-4.9-3.1c-1.4-1.4-2.5-3-3.3-5c-0.8-2-1.2-4.3-1.2-7c0-2.6,0.4-5,1.2-7c0.8-2,2-3.7,3.4-5.1
			c1.4-1.4,3-2.4,4.9-3.1c1.9-0.7,3.8-1,5.9-1c2.1,0,4.1,0.3,6,1c1.9,0.7,3.5,1.7,4.9,3.1c1.4,1.4,2.5,3.1,3.3,5.1
			C51.9,42.4,52.3,44.7,52.3,47.4z M28.7,47.4c0,1.5,0.2,2.9,0.6,4.1c0.4,1.2,0.9,2.3,1.6,3.1c0.7,0.9,1.6,1.6,2.6,2
			c1,0.5,2.2,0.7,3.5,0.7c1.3,0,2.4-0.2,3.5-0.7c1-0.5,1.9-1.2,2.6-2c0.7-0.9,1.2-1.9,1.6-3.1c0.4-1.2,0.6-2.6,0.6-4.1
			c0-1.5-0.2-2.9-0.6-4.1C44.2,42,43.7,41,43,40.1c-0.7-0.9-1.6-1.6-2.6-2c-1-0.5-2.2-0.7-3.5-0.7c-1.3,0-2.5,0.2-3.5,0.7
			c-1,0.5-1.9,1.2-2.6,2c-0.7,0.9-1.2,1.9-1.6,3.2C28.9,44.5,28.7,45.9,28.7,47.4z"/>
		<path fill="#62585E" d="M71.2,45.3c-0.6-0.1-1.3-0.3-2.1-0.5c-0.8-0.2-1.7-0.2-2.6-0.2c-0.4,0-0.9,0-1.5,0.1
			c-0.6,0.1-1,0.2-1.3,0.2v17.9h-6.6V40.6c1.2-0.4,2.6-0.8,4.2-1.2c1.6-0.4,3.4-0.6,5.4-0.6c0.4,0,0.8,0,1.3,0.1
			c0.5,0,1,0.1,1.5,0.2c0.5,0.1,1,0.2,1.5,0.3c0.5,0.1,0.9,0.2,1.3,0.4L71.2,45.3z"/>
		<path fill="#62585E" d="M82.6,32.6c0,1.2-0.4,2.2-1.2,2.9c-0.8,0.7-1.7,1-2.8,1c-1.1,0-2-0.3-2.8-1c-0.8-0.7-1.2-1.7-1.2-2.9
			c0-1.2,0.4-2.2,1.2-2.9c0.8-0.7,1.7-1,2.8-1c1.1,0,2,0.3,2.8,1C82.2,30.4,82.6,31.4,82.6,32.6z M81.9,62.8h-6.6V39.4h6.6V62.8z"/>
		<path fill="#62585E" d="M107.1,59.9c0,3.8-1,6.7-2.9,8.5c-1.9,1.9-5,2.8-9,2.8c-1.4,0-2.9-0.1-4.3-0.4c-1.4-0.3-2.7-0.6-4-1
			l1.2-5.6c1,0.4,2.1,0.7,3.3,1c1.1,0.2,2.4,0.4,3.9,0.4c1.9,0,3.2-0.4,4-1.2c0.8-0.8,1.2-1.9,1.2-3.2v-0.8
			c-0.7,0.3-1.4,0.6-2.2,0.7c-0.8,0.2-1.6,0.2-2.5,0.2c-3.2,0-5.7-1-7.4-2.9c-1.7-1.9-2.6-4.6-2.6-8c0-1.7,0.3-3.3,0.8-4.7
			c0.5-1.4,1.3-2.6,2.3-3.6c1-1,2.3-1.8,3.8-2.3c1.5-0.5,3.2-0.8,5-0.8c0.8,0,1.6,0,2.5,0.1c0.8,0.1,1.7,0.2,2.5,0.3
			c0.8,0.1,1.6,0.3,2.4,0.4c0.8,0.2,1.4,0.3,2,0.5V59.9z M92.5,50.3c0,3.7,1.5,5.6,4.5,5.6c0.7,0,1.3-0.1,1.9-0.3
			c0.6-0.2,1.1-0.4,1.5-0.6V44.4c-0.3-0.1-0.7-0.1-1.2-0.2c-0.4,0-1-0.1-1.6-0.1c-1.8,0-3.1,0.6-3.9,1.7
			C92.9,47.1,92.5,48.6,92.5,50.3z"/>
		<path fill="#62585E" d="M119.5,32.6c0,1.2-0.4,2.2-1.2,2.9c-0.8,0.7-1.7,1-2.8,1c-1.1,0-2-0.3-2.8-1c-0.8-0.7-1.2-1.7-1.2-2.9
			c0-1.2,0.4-2.2,1.2-2.9c0.8-0.7,1.7-1,2.8-1c1.1,0,2,0.3,2.8,1C119.1,30.4,119.5,31.4,119.5,32.6z M118.8,62.8h-6.6V39.4h6.6V62.8
			z"/>
		<path fill="#62585E" d="M124,40.2c1.1-0.3,2.6-0.6,4.4-0.9c1.8-0.3,3.7-0.4,5.6-0.4c2,0,3.6,0.3,5,0.8c1.3,0.5,2.4,1.3,3.1,2.2
			c0.8,1,1.3,2.1,1.6,3.4c0.3,1.3,0.5,2.8,0.5,4.4v13.2h-6.6V50.4c0-2.1-0.3-3.7-0.8-4.5c-0.6-0.9-1.6-1.3-3.2-1.3
			c-0.5,0-1,0-1.5,0.1c-0.5,0-1,0.1-1.4,0.2v18.1H124V40.2z"/>
		<path fill="#96BD3D" d="M183.5,63.3c-1.9,0-3.5-0.2-4.7-0.6c-1.2-0.4-2.2-0.9-2.9-1.6c-0.7-0.7-1.2-1.5-1.4-2.5
			c-0.3-1-0.4-2.1-0.4-3.4V31.1l6.6-1.1v23.8c0,0.6,0,1.1,0.1,1.6c0.1,0.5,0.3,0.9,0.5,1.2c0.3,0.3,0.6,0.6,1.1,0.8
			c0.5,0.2,1.1,0.3,1.9,0.4L183.5,63.3z"/>
		<path fill="#96BD3D" d="M196.8,63.3c-1.9,0-3.5-0.2-4.7-0.6c-1.2-0.4-2.2-0.9-2.9-1.6c-0.7-0.7-1.2-1.5-1.4-2.5
			c-0.3-1-0.4-2.1-0.4-3.4V31.1l6.6-1.1v23.8c0,0.6,0,1.1,0.1,1.6c0.1,0.5,0.3,0.9,0.5,1.2c0.3,0.3,0.6,0.6,1.1,0.8
			c0.5,0.2,1.1,0.3,1.9,0.4L196.8,63.3z"/>
		<path fill="#96BD3D" d="M169.4,62.2c-0.6,0.2-1.3,0.3-2,0.5c-0.8,0.2-1.6,0.3-2.4,0.4c-0.8,0.1-1.7,0.2-2.5,0.3
			c-0.8,0.1-1.7,0.1-2.5,0.1c-1.9,0-3.6-0.3-5-0.8c-1.5-0.5-2.7-1.3-3.8-2.3c-1-1-1.8-2.2-2.3-3.6c-0.5-1.4-0.8-3-0.8-4.7
			c0-3.4,0.9-6.1,2.6-8c1.7-1.9,4.2-2.9,7.4-2.9c0.9,0,1.7,0.1,2.5,0.2c0.8,0.2,1.5,0.4,2.2,0.7v-0.8c0-1.3-0.4-2.4-1.2-3.2
			c-0.8-0.8-2.1-1.2-4-1.2c-1.5,0-2.8,0.1-3.9,0.4c-1.1,0.2-2.2,0.6-3.3,1l-1.2-5.6c1.2-0.4,2.5-0.7,4-1c1.4-0.3,2.9-0.4,4.3-0.4
			c4.1,0,7.1,0.9,9,2.8c1.9,1.9,2.9,4.7,2.9,8.5V62.2z M156.2,56.4c0.9,1.2,2.2,1.7,3.9,1.7c0.6,0,1.1,0,1.6-0.1
			c0.4,0,0.8-0.1,1.2-0.2V47.3c-0.4-0.2-0.9-0.4-1.5-0.6c-0.6-0.2-1.2-0.3-1.9-0.3c-3,0-4.5,1.9-4.5,5.6
			C154.9,53.8,155.3,55.3,156.2,56.4z"/>
	</g>
</g>
</svg>
