<?xml version="1.0" encoding="utf-8"?>
<!-- Generator: Adobe Illustrator 18.1.0, SVG Export Plug-In . SVG Version: 6.00 Build 0)  -->
<svg version="1.1" id="Layer_1" xmlns="http://www.w3.org/2000/svg" xmlns:xlink="http://www.w3.org/1999/xlink" x="0px" y="0px"
	 viewBox="0 0 200 200" enable-background="new 0 0 200 200" xml:space="preserve">
<path fill="#62585E" d="M188.2,32.4H11.8c-6.1,0-11.1,5-11.1,11.1v115.1c0,6.1,5,11.1,11.1,11.1h176.4c6.1,0,11.1-5,11.1-11.1V43.5
	C199.3,37.4,194.3,32.4,188.2,32.4z M11.8,38.2h176.4c2.8,0,5.2,2.3,5.3,5.1l-89,73.1c-2.4,2-6.6,2-9,0l-89-73.1
	C6.6,40.4,9,38.2,11.8,38.2z M6.5,50.7L67.7,101L6.5,151.3V50.7z M188.2,163.8H11.8c-2.8,0-5.2-2.3-5.3-5.1l65.8-54l19.6,16.1
	c2.3,1.9,5.2,2.8,8.1,2.8s5.9-0.9,8.1-2.8l19.6-16.1l65.8,54C193.4,161.6,191,163.8,188.2,163.8z M193.5,151.3L132.3,101l61.2-50.3
	V151.3z"/>
<g>
	<g>
		<path fill="#62585E" d="M89.4,84.6L89.4,84.6l1.1,0.4l-0.1-1.2c0,0,0,0,0,0L89.4,84.6z"/>
		<path fill="#62585E" d="M84.6,82.4c0.2,0,0.4,0,0.6,0l0.2-1.6c-0.3,0-0.6-0.1-0.8-0.1c-1.4,0-2.7,0.3-3.9,1l0.9,1.5
			C82.5,82.7,83.5,82.4,84.6,82.4z"/>
		<path fill="#62585E" d="M80.4,84.2c0.3-0.3,0.5-0.5,0.8-0.7l-1-1.5c-0.4,0.3-0.8,0.6-1.2,0.9c-1.4,1.3-2.3,3.2-2.4,5.1h2.1
			C78.9,86.6,79.5,85.2,80.4,84.2z"/>
		<path fill="#62585E" d="M88.9,84c0.1,0.1,0.2,0.2,0.3,0.3l1-0.8c-0.1-0.1-0.3-0.3-0.4-0.4c-0.3-0.3-0.6-0.6-1-0.9l-0.8,1.2
			C88.4,83.6,88.6,83.8,88.9,84z"/>
		<path fill="#62585E" d="M87.8,83.2l0.8-1.2c-0.8-0.5-1.8-0.9-2.7-1.1l-0.2,1.5C86.4,82.5,87.1,82.8,87.8,83.2z"/>
		<path fill="#62585E" d="M84.6,93.8c-1.4,0-2.9-0.5-4-1.5c-1-1-1.7-2.3-1.8-3.7h-2.2c0,2,0.8,4,2.2,5.4c1.4,1.5,3.5,2.4,5.6,2.5
			c2.1,0,4.3-0.8,5.8-2.3c0.1-0.1,0.1-0.1,0.2-0.2l-2.4-1.7C87.3,93.2,86,93.8,84.6,93.8z"/>
	</g>
	<g>
		<path fill="#62585E" d="M88.2,88c0,0.6-0.1,1.2-0.3,1.6c-0.2,0.5-0.4,0.9-0.7,1.2c-0.3,0.3-0.7,0.6-1.1,0.7s-0.9,0.2-1.4,0.2
			c-0.5,0-0.9-0.1-1.4-0.2s-0.8-0.4-1.1-0.7c-0.3-0.3-0.6-0.7-0.8-1.2c-0.2-0.5-0.3-1-0.3-1.6c0-0.6,0.1-1.2,0.3-1.6
			c0.2-0.5,0.5-0.9,0.8-1.2c0.3-0.3,0.7-0.6,1.1-0.7s0.9-0.2,1.4-0.2c0.5,0,0.9,0.1,1.4,0.2c0.4,0.2,0.8,0.4,1.1,0.7
			c0.3,0.3,0.6,0.7,0.8,1.2C88.1,86.8,88.2,87.4,88.2,88z M82.7,88c0,0.3,0,0.7,0.1,0.9c0.1,0.3,0.2,0.5,0.4,0.7
			c0.2,0.2,0.4,0.4,0.6,0.5c0.2,0.1,0.5,0.2,0.8,0.2s0.6,0,0.8-0.2c0.2-0.1,0.4-0.3,0.6-0.5c0.2-0.2,0.3-0.4,0.4-0.7
			c0.1-0.3,0.1-0.6,0.1-0.9s0-0.7-0.1-0.9c-0.1-0.3-0.2-0.5-0.4-0.7s-0.4-0.4-0.6-0.5c-0.2-0.1-0.5-0.2-0.8-0.2s-0.6,0-0.8,0.2
			c-0.2,0.1-0.4,0.3-0.6,0.5c-0.2,0.2-0.3,0.4-0.4,0.7C82.8,87.3,82.7,87.7,82.7,88z"/>
		<path fill="#62585E" d="M92.6,87.5c-0.1,0-0.3-0.1-0.5-0.1c-0.2,0-0.4,0-0.6,0c-0.1,0-0.2,0-0.3,0c-0.1,0-0.2,0-0.3,0v4.1h-1.5
			v-5.1c0.3-0.1,0.6-0.2,1-0.3c0.4-0.1,0.8-0.1,1.2-0.1c0.1,0,0.2,0,0.3,0c0.1,0,0.2,0,0.3,0c0.1,0,0.2,0,0.3,0.1
			c0.1,0,0.2,0,0.3,0.1L92.6,87.5z"/>
		<path fill="#62585E" d="M95.2,84.6c0,0.3-0.1,0.5-0.3,0.7c-0.2,0.2-0.4,0.2-0.6,0.2c-0.3,0-0.5-0.1-0.6-0.2
			c-0.2-0.2-0.3-0.4-0.3-0.7c0-0.3,0.1-0.5,0.3-0.7c0.2-0.2,0.4-0.2,0.6-0.2c0.3,0,0.5,0.1,0.6,0.2C95.1,84.1,95.2,84.3,95.2,84.6z
			 M95,91.6h-1.5v-5.4H95V91.6z"/>
		<path fill="#62585E" d="M100.9,90.9c0,0.9-0.2,1.5-0.7,2c-0.4,0.4-1.2,0.6-2.1,0.6c-0.3,0-0.7,0-1-0.1c-0.3-0.1-0.6-0.1-0.9-0.2
			l0.3-1.3c0.2,0.1,0.5,0.2,0.8,0.2c0.3,0,0.6,0.1,0.9,0.1c0.4,0,0.7-0.1,0.9-0.3c0.2-0.2,0.3-0.4,0.3-0.7V91
			c-0.2,0.1-0.3,0.1-0.5,0.2c-0.2,0-0.4,0-0.6,0c-0.7,0-1.3-0.2-1.7-0.7s-0.6-1.1-0.6-1.8c0-0.4,0.1-0.8,0.2-1.1
			c0.1-0.3,0.3-0.6,0.5-0.8c0.2-0.2,0.5-0.4,0.9-0.5c0.3-0.1,0.7-0.2,1.2-0.2c0.2,0,0.4,0,0.6,0c0.2,0,0.4,0,0.6,0.1
			s0.4,0.1,0.6,0.1c0.2,0,0.3,0.1,0.5,0.1C100.9,86.4,100.9,90.9,100.9,90.9z M97.5,88.7c0,0.9,0.3,1.3,1,1.3c0.2,0,0.3,0,0.4-0.1
			c0.1,0,0.3-0.1,0.3-0.1v-2.5c-0.1,0-0.2,0-0.3,0c-0.1,0-0.2,0-0.4,0c-0.4,0-0.7,0.1-0.9,0.4C97.6,87.9,97.5,88.3,97.5,88.7z"/>
		<path fill="#62585E" d="M103.7,84.6c0,0.3-0.1,0.5-0.3,0.7c-0.2,0.2-0.4,0.2-0.6,0.2c-0.3,0-0.5-0.1-0.6-0.2
			c-0.2-0.2-0.3-0.4-0.3-0.7c0-0.3,0.1-0.5,0.3-0.7c0.2-0.2,0.4-0.2,0.6-0.2c0.3,0,0.5,0.1,0.6,0.2
			C103.6,84.1,103.7,84.3,103.7,84.6z M103.6,91.6H102v-5.4h1.5V91.6z"/>
		<path fill="#62585E" d="M104.8,86.3c0.3-0.1,0.6-0.1,1-0.2c0.4-0.1,0.9-0.1,1.3-0.1c0.5,0,0.8,0.1,1.2,0.2
			c0.3,0.1,0.6,0.3,0.7,0.5c0.2,0.2,0.3,0.5,0.4,0.8s0.1,0.6,0.1,1v3.1h-1.5v-2.9c0-0.5-0.1-0.9-0.2-1c-0.1-0.2-0.4-0.3-0.7-0.3
			c-0.1,0-0.2,0-0.3,0c-0.1,0-0.2,0-0.3,0v4.2h-1.5V86.3z"/>
		<path fill="#62585E" d="M118.5,91.7c-0.4,0-0.8,0-1.1-0.1c-0.3-0.1-0.5-0.2-0.7-0.4c-0.2-0.2-0.3-0.3-0.3-0.6
			c-0.1-0.2-0.1-0.5-0.1-0.8v-5.6l1.5-0.3v5.5c0,0.1,0,0.3,0,0.4c0,0.1,0.1,0.2,0.1,0.3c0.1,0.1,0.1,0.1,0.3,0.2
			c0.1,0,0.3,0.1,0.4,0.1L118.5,91.7z"/>
		<path fill="#62585E" d="M121.6,91.7c-0.4,0-0.8,0-1.1-0.1c-0.3-0.1-0.5-0.2-0.7-0.4s-0.3-0.3-0.3-0.6c-0.1-0.2-0.1-0.5-0.1-0.8
			v-5.6l1.5-0.3v5.5c0,0.1,0,0.3,0,0.4c0,0.1,0.1,0.2,0.1,0.3c0.1,0.1,0.1,0.1,0.3,0.2c0.1,0,0.3,0.1,0.4,0.1L121.6,91.7z"/>
		<path fill="#62585E" d="M115.3,91.4c-0.1,0-0.3,0.1-0.5,0.1c-0.2,0-0.4,0.1-0.6,0.1c-0.2,0-0.4,0-0.6,0.1c-0.2,0-0.4,0-0.6,0
			c-0.4,0-0.8-0.1-1.2-0.2c-0.3-0.1-0.6-0.3-0.9-0.5c-0.2-0.2-0.4-0.5-0.5-0.8c-0.1-0.3-0.2-0.7-0.2-1.1c0-0.8,0.2-1.4,0.6-1.8
			c0.4-0.4,1-0.7,1.7-0.7c0.2,0,0.4,0,0.6,0c0.2,0,0.3,0.1,0.5,0.2v-0.2c0-0.3-0.1-0.6-0.3-0.7c-0.2-0.2-0.5-0.3-0.9-0.3
			c-0.3,0-0.6,0-0.9,0.1c-0.3,0-0.5,0.1-0.8,0.2l-0.3-1.3c0.3-0.1,0.6-0.2,0.9-0.2c0.3-0.1,0.7-0.1,1-0.1c0.9,0,1.6,0.2,2.1,0.6
			c0.4,0.4,0.7,1.1,0.7,2V91.4z M112.2,90.1c0.2,0.3,0.5,0.4,0.9,0.4c0.1,0,0.3,0,0.4,0c0.1,0,0.2,0,0.3,0V88
			c-0.1,0-0.2-0.1-0.3-0.1c-0.1,0-0.3-0.1-0.4-0.1c-0.7,0-1,0.4-1,1.3C111.9,89.5,112,89.8,112.2,90.1z"/>
	</g>
</g>
</svg>
