<?xml version="1.0" encoding="utf-8"?>
<!-- Generator: Adobe Illustrator 18.1.0, SVG Export Plug-In . SVG Version: 6.00 Build 0)  -->
<svg version="1.1" id="Layer_1" xmlns="http://www.w3.org/2000/svg" xmlns:xlink="http://www.w3.org/1999/xlink" x="0px" y="0px"
	 viewBox="0 0 100 100" enable-background="new 0 0 100 100" xml:space="preserve">
<g>
	<path fill="none" d="M48.1,64.7c-0.3-0.1-0.6-0.3-0.9-0.6c-0.2,0-0.5,0-0.6,0c-19.8,0-40.6-4-42.8-11.2c-0.5,1.4-0.5,3.2,0,5.3
		c2.2,10,13.9,24.8,21.5,29.2c4,2.2,12.2,3.7,20.8,3.7c8.5,0,15.8-1.4,19.5-3.7c9-5.7,26.6-25.5,23.8-34.8
		c-1.2,6.4-16.4,10.3-33,11.4C54,65.6,50.7,66.1,48.1,64.7z"/>
	<path fill="none" d="M87,51.8c0-2.9-5.9-6-15.4-8.1L58.1,61.7C75.6,60.3,87,55.9,87,51.8z"/>
	<path fill="none" d="M45,56l6.3-14.4c-1.5,0-3.1-0.1-4.8-0.1c-23.9,0-40.6,5.4-40.6,10.4C5.9,56.7,22,62,45,62.2
		C43.9,60.3,43.8,57.9,45,56z"/>
	<path fill="#62585E" stroke="#62585E" stroke-miterlimit="10" d="M90.3,49.6c-3.2-4.2-9.3-7.1-16.4-9l7.3-9.6
		c0.6-0.7,1.1-1.2,1.4-1.9c3.1-5.4,0.8-11.9-5.1-14.9c-6-2.8-13.3-0.7-16.5,4.6c-0.5,0.7-0.8,1.4-0.9,2.1l-7.3,16.7
		c-2-0.1-3.9-0.1-5.7-0.1c-15.8,0-36.8,3.2-44.2,12.1c-1.9,2.1-2.3,5.1-1.4,9C3.8,69.2,16,84.4,24,89c4.5,2.5,13,4,22.1,4
		c9.1,0,16.7-1.5,20.7-4C76.2,83.2,98,59.6,90.3,49.6z M87,51.8c0,4-11.4,8.5-28.9,10l13.4-19C81.3,44.7,87,48.9,87,51.8z
		 M53.8,41.6l1.7-3.9l6.9-16.1c0.2-0.7,0.5-1.2,0.8-1.8c2.5-4.3,8.5-6,13.3-3.7c4.8,2.2,6.6,7.6,4.2,11.9c-0.3,0.6-0.8,1.1-1.2,1.7
		l-7.7,10.3l-2.5,3.2L55.8,60.8c-0.2,0.3-0.5,0.6-0.8,0.8c-2.3,0.1-4.6,0.1-7.1,0.3c-1.5-1.4-2-3.5-0.9-5.3L53.8,41.6z M46.6,40.3
		c1.7,0,3.2,0,4.8,0.1L45,56c-1.2,2.1-1.1,4.3,0.2,6.2C22,62,6.1,56.7,6.1,51.8C5.9,46.8,22.6,40.3,46.6,40.3z M65.6,87.4
		c-3.6,2.4-10.8,3.7-19.5,3.7s-16.8-1.5-20.8-3.7C17.7,83.1,5.8,68.2,3.8,58.2c-0.5-2.1-0.5-3.7,0-5.3c2,7.4,23,11.2,42.8,11.2
		c0.2,0,0.5,0,0.6,0c2.9,0,6-0.1,9-0.3c16.7-1.1,32-5,33-11.4C92.1,61.8,74.5,81.7,65.6,87.4z"/>
</g>
<path d="M147.5,76.4"/>
</svg>
