<?xml version="1.0" encoding="utf-8"?>
<!-- Generator: Adobe Illustrator 18.1.0, SVG Export Plug-In . SVG Version: 6.00 Build 0)  -->
<svg version="1.1" id="Your_Icon" xmlns="http://www.w3.org/2000/svg" xmlns:xlink="http://www.w3.org/1999/xlink" x="0px" y="0px"
	 viewBox="-472.9 497.3 1095.4 1078.6" enable-background="new -472.9 497.3 1095.4 1078.6" xml:space="preserve">
<path fill="#62585E" d="M-168.1,516.3c15.2,0,24.8,7.6,28.6,17.1c3.8,9.5,1.9,22.9-7.6,32.4c-13.3,15.2-17.1,34.3-9.5,51.4
	c7.6,17.1,24.8,26.7,47.6,26.7h97.1c3.8,0,3.8,1.9,3.8,3.8v89.5c-13.3-9.5-28.6-13.3-43.8-13.3c-9.5,0-19,1.9-28.6,5.7
	c-28.6,11.4-43.8,40-43.8,74.3l0,0c0,34.3,17.1,62.9,43.8,74.3c9.5,3.8,19,5.7,28.6,5.7c15.2,0,30.5-5.7,43.8-15.2v89.5
	c0,1.9-1.9,5.7-3.8,5.7h-97.1c-22.9,0-43.8,11.4-53.3,30.5c-7.6,17.1-3.8,34.3,7.6,47.6c5.7,5.7,7.6,19,5.7,24.8
	c-1.9,5.7-7.6,7.6-19,7.6c-3.8,0-11.4-1.9-13.3-5.7c-3.8-5.7,0-21,5.7-30.5c9.5-11.4,11.4-28.6,5.7-43.8
	c-9.5-21-32.4-34.3-57.1-34.3h-95.2c-1.9,0-5.7-1.9-5.7-5.7V863c13.3,11.4,30.5,17.1,47.6,17.1c9.5,0,19-1.9,28.6-5.7
	c28.6-13.3,45.7-40,45.7-74.3l0,0c0-32.4-17.1-61-45.7-74.3c-9.5-3.8-19-5.7-28.6-5.7c-17.1,0-34.3,5.7-47.6,17.1v-91.4
	c0-3.8,3.8-3.8,5.7-3.8h95.2c21,0,40-9.5,47.6-26.7c7.6-17.1,3.8-36.2-9.5-51.4c-7.6-9.5-11.4-21-7.6-32.4
	C-194.8,524-183.3,518.3-168.1,516.3 M-168.1,497.3c-49.5,1.9-64.8,49.5-36.2,80c17.1,19,9.5,45.7-22.9,45.7h-95.2
	c-13.3,0-24.8,9.5-24.8,22.9V743c0,5.7,1.9,15.2,7.6,17.1c1.9,0,3.8,1.9,3.8,1.9c3.8,0,9.5-1.9,13.3-5.7
	c11.4-11.4,26.7-17.1,40-17.1c7.6,0,15.2,1.9,21,3.8c21,9.5,34.3,30.5,34.3,57.1l0,0l0,0c0,26.7-15.2,47.6-34.3,57.1
	c-7.6,3.8-13.3,3.8-21,3.8c-15.2,0-28.6-5.7-41.9-17.1c-3.8-3.8-9.5-5.7-13.3-5.7c-1.9,0-3.8,0-3.8,0c-5.7,1.9-7.6,11.4-7.6,17.1v99
	c0,13.3,11.4,24.8,24.8,24.8h95.2c32.4,0,53.3,28.6,36.2,47.6c-7.6,15.2-24.8,62.9,24.8,64.8c49.5-1.9,43.8-47.6,28.6-64.8
	c-17.1-19-1.9-47.6,30.5-47.6h97.1c13.3,0,22.9-11.4,22.9-24.8v-97.1c0-5.7-1.9-15.2-7.6-17.1c-1.9,0-3.8-1.9-3.8-1.9
	c-3.8,0-9.5,1.9-13.3,5.7c-11.4,11.4-24.8,17.1-40,17.1c-7.6,0-13.3-1.9-21-3.8c-21-9.5-32.4-30.5-32.4-57.1l0,0l0,0
	c0-26.7,13.3-47.6,32.4-57.1c7.6-3.8,13.3-3.8,21-3.8c13.3,0,28.6,5.7,40,17.1c3.8,3.8,7.6,5.7,11.4,5.7c1.9,0,1.9,0,3.8,0
	c5.7-1.9,5.7-11.4,5.7-17.1v-99c0-13.3-9.5-22.9-22.9-22.9h-97.1c-32.4,0-40-26.7-22.9-45.7C-105.2,546.8-120.5,499.2-168.1,497.3
	L-168.1,497.3z"/>
<path fill="#62585E" d="M361.4,642.1c1.9,0,5.7,1.9,5.7,3.8V743c0,34.3,22.9,51.4,43.8,51.4c11.4,0,22.9-3.8,32.4-13.3
	c5.7-5.7,13.3-9.5,21-9.5c15.2,0,24.8,11.4,26.7,30.5c-1.9,19-11.4,30.5-26.7,30.5c-7.6,0-15.2-3.8-21-9.5
	c-9.5-9.5-21-13.3-32.4-13.3c-21,0-43.8,15.2-43.8,51.4v95.2c0,1.9-1.9,5.7-5.7,5.7H270c17.1-22.9,21-51.4,9.5-76.2
	c-13.3-28.6-40-45.7-74.3-45.7l0,0c-32.4,0-61,17.1-74.3,45.7c-11.4,24.8-7.6,55.2,11.4,78.1H50.9c-3.8,0-3.8-3.8-3.8-5.7V863
	c0-36.2-24.8-57.1-47.6-57.1c-9.5,0-19,3.8-26.7,9.5c-3.8,1.9-13.3,5.7-21,5.7c-7.6,0-13.3-1.9-13.3-17.1
	c1.9-17.1,9.5-17.1,13.3-17.1l0,0c7.6,0,15.2,3.8,19,5.7c7.6,7.6,17.1,11.4,28.6,11.4c26.7,0,49.5-26.7,49.5-59v-97.1
	c0-3.8,1.9-3.8,3.8-3.8h89.5c-15.2,22.9-19,49.5-7.6,72.4c11.4,28.6,40,43.8,74.3,43.8l0,0c34.3,0,62.9-17.1,74.3-43.8
	c11.4-24.8,7.6-51.4-9.5-72.4L361.4,642.1 M361.4,623h-97.1c-5.7,0-15.2,1.9-17.1,7.6c-1.9,5.7,0,11.4,5.7,17.1
	c17.1,17.1,21,40,11.4,61c-9.5,21-30.5,32.4-57.1,32.4l0,0l0,0c-26.7,0-47.6-13.3-57.1-32.4c-9.5-21-3.8-43.8,11.4-61
	c5.7-5.7,7.6-11.4,5.7-15.2c-1.9-5.7-11.4-5.7-17.1-5.7h-99c-13.3,0-22.9,9.5-22.9,22.9v97.1c0,24.8-15.2,40-30.5,40
	c-5.7,0-11.4-1.9-15.2-5.7c-5.7-5.7-19-9.5-30.5-9.5c-15.2,0-32.4,9.5-32.4,36.2c1.9,28.6,17.1,36.2,32.4,36.2
	c13.3,0,24.8-3.8,30.5-7.6s11.4-5.7,17.1-5.7c15.2,0,28.6,15.2,28.6,38.1V964c0,13.3,9.5,24.8,22.9,24.8h97.1
	c5.7,0,15.2-1.9,17.1-7.6c1.9-5.7,0-13.3-5.7-19c-17.1-17.1-21-41.9-11.4-62.9c9.5-21,30.5-34.3,57.1-34.3l0,0l0,0
	c26.7,0,47.6,15.2,57.1,34.3c9.5,21,3.8,43.8-11.4,62.9c-5.7,5.7-7.6,13.3-5.7,17.1c1.9,5.7,11.4,7.6,17.1,7.6h99
	c13.3,0,24.8-11.4,24.8-24.8v-95.2c0-21,11.4-32.4,24.8-32.4c7.6,0,13.3,3.8,21,7.6c9.5,9.5,22.9,13.3,34.3,13.3
	c22.9,0,43.8-17.1,45.7-49.5c-1.9-32.4-22.9-49.5-45.7-49.5c-11.4,0-22.9,3.8-34.3,13.3c-5.7,5.7-13.3,7.6-21,7.6
	c-13.3,0-24.8-9.5-24.8-32.4v-97.1C384.3,632.5,374.8,623,361.4,623L361.4,623z"/>
<path fill="#62585E" d="M-11.9,1017.3c3.8,0,3.8,3.8,3.8,5.7v95.2c0,34.3,22.9,51.4,43.8,51.4c11.4,0,22.9-3.8,34.3-13.3
	c5.7-5.7,13.3-9.5,21-9.5c11.4,0,24.8,7.6,26.7,30.5c-1.9,22.9-15.2,30.5-26.7,30.5c-7.6,0-15.2-3.8-21-9.5
	c-9.5-9.5-21-13.3-34.3-13.3c-21,0-43.8,15.2-43.8,51.4v97.1c0,3.8-1.9,3.8-3.8,3.8h-89.5c15.2-22.9,19-49.5,7.6-72.4
	c-11.4-28.6-40-43.8-74.3-43.8l0,0c-34.3,0-62.9,17.1-74.3,43.8c-11.4,24.8-7.6,51.4,9.5,72.4h-89.5c-1.9,0-5.7-1.9-5.7-3.8v-97.1
	c0-34.3-22.9-51.4-43.8-51.4c-11.4,0-22.9,3.8-32.4,13.3c-5.7,5.7-13.3,9.5-21,9.5c-15.2,0-24.8-11.4-26.7-30.5
	c1.9-19,11.4-30.5,26.7-30.5c7.6,0,15.2,3.8,21,9.5c9.5,9.5,21,13.3,32.4,13.3c21,0,43.8-15.2,43.8-51.4V1023c0-1.9,1.9-5.7,5.7-5.7
	h91.4c-17.1,22.9-21,51.4-9.5,76.2c13.3,28.6,40,45.7,74.3,45.7l0,0c32.4,0,61-17.1,74.3-45.7c11.4-24.8,7.6-55.2-11.4-78.1
	L-11.9,1017.3 M-11.9,998.3h-97.1c-5.7,0-15.2,1.9-17.1,7.6c-1.9,5.7,0,13.3,5.7,19c17.1,17.1,21,41.9,11.4,62.9
	s-30.5,34.3-57.1,34.3l0,0l0,0c-26.7,0-47.6-15.2-57.1-34.3c-9.5-21-3.8-43.8,11.4-62.9c5.7-5.7,7.6-13.3,5.7-17.1
	c-1.9-5.7-11.4-7.6-17.1-7.6h-99c-13.3,0-24.8,11.4-24.8,24.8v95.2c0,21-11.4,32.4-24.8,32.4c-7.6,0-13.3-3.8-21-7.6
	c-9.5-9.5-22.9-13.3-34.3-13.3c-22.9,0-43.8,17.1-45.7,49.5c1.9,32.4,22.9,49.5,45.7,49.5c11.4,0,22.9-3.8,34.3-13.3
	c5.7-5.7,13.3-7.6,21-7.6c13.3,0,24.8,9.5,24.8,32.4v97.1c0,13.3,11.4,22.9,24.8,22.9h97.1c5.7,0,15.2-1.9,17.1-7.6
	c1.9-5.7,0-11.4-5.7-17.1c-17.1-17.1-21-40-11.4-61c9.5-21,30.5-32.4,57.1-32.4l0,0l0,0c26.7,0,47.6,13.3,57.1,32.4
	c9.5,21,3.8,43.8-11.4,61c-5.7,5.7-7.6,11.4-5.7,15.2c1.9,5.7,11.4,5.7,17.1,5.7h99c13.3,0,22.9-9.5,22.9-22.9v-97.1
	c0-21,11.4-32.4,24.8-32.4c7.6,0,15.2,3.8,21,7.6c9.5,9.5,22.9,13.3,34.3,13.3c22.9,0,43.8-17.1,45.7-49.5
	c-1.9-32.4-22.9-49.5-45.7-49.5c-11.4,0-24.8,3.8-34.3,13.3c-5.7,5.7-13.3,7.6-21,7.6c-13.3,0-24.8-9.5-24.8-32.4v-95.2
	C10.9,1009.7,1.4,998.3-11.9,998.3L-11.9,998.3z"/>
<path fill="#62585E" d="M327.1,1093.5c1.9-3.8,5.7,0,5.7,0l80,49.5c28.6,19,55.2,7.6,66.7-11.4c5.7-9.5,7.6-22.9,5.7-36.2
	c-1.9-7.6,0-17.1,3.8-22.9c5.7-9.5,21-17.1,40-5.7c19,13.3,19,28.6,11.4,40c-3.8,5.7-11.4,11.4-19,13.3c-13.3,3.8-22.9,11.4-28.6,21
	c-11.4,17.1-9.5,45.7,19,64.8l81.9,51.4c3.8,1.9,1.9,3.8,1.9,5.7l-47.6,76.2c-11.4-24.8-32.4-41.9-57.1-45.7
	c-30.5-3.8-59,11.4-76.2,40l0,0c-17.1,28.6-19,61-1.9,85.7c15.2,21,40,32.4,66.7,30.5l-47.6,76.2c-1.9,1.9-3.8,3.8-5.7,1.9
	l-81.9-51.4c-30.5-19-55.2-7.6-66.7,9.5c-5.7,9.5-7.6,22.9-5.7,36.2c1.9,7.6,0,17.1-3.8,22.9c-7.6,13.3-22.9,15.2-40,5.7
	c-15.2-11.4-21-26.7-13.3-38.1c3.8-5.7,11.4-11.4,19-13.3c13.3-3.8,22.9-11.4,28.6-21c11.4-17.1,9.5-45.7-21-62.9l-80-49.5
	c-1.9-1.9-1.9-3.8-1.9-7.6l47.6-78.1c9.5,26.7,32.4,45.7,61,49.5c30.5,3.8,61-9.5,78.1-38.1l0,0c17.1-28.6,17.1-61,0-87.6
	c-15.2-22.9-41.9-34.3-70.5-32.4L327.1,1093.5 M311.9,1084l-51.4,83.8c-3.8,5.7-5.7,15.2-1.9,19c3.8,5.7,11.4,5.7,19,5.7
	c22.9-3.8,45.7,3.8,59,22.9c13.3,19,13.3,43.8,0,66.7l0,0l0,0c-13.3,22.9-38.1,32.4-59,30.5c-22.9-3.8-40-19-47.6-43.8
	c-1.9-7.6-5.7-13.3-11.4-13.3c-5.7,0-13.3,5.7-15.2,11.4l-51.4,83.8c-7.6,11.4-3.8,26.7,7.6,32.4l80,49.5
	c17.1,11.4,21,26.7,13.3,36.2c-3.8,5.7-9.5,11.4-19,13.3c-13.3,3.8-22.9,11.4-28.6,21c-11.4,19-7.6,47.6,19,64.8
	c28.6,15.2,55.2,7.6,66.7-11.4c5.7-9.5,9.5-22.9,5.7-36.2c-1.9-7.6,0-17.1,3.8-22.9c7.6-11.4,21-15.2,40-3.8l81.9,51.4
	c11.4,7.6,24.8,1.9,32.4-9.5l51.4-83.8c3.8-5.7,7.6-13.3,3.8-19c-3.8-5.7-9.5-5.7-17.1-3.8c-22.9,3.8-43.8-3.8-57.1-21
	c-13.3-19-11.4-43.8,1.9-64.8l0,0l0,0c13.3-22.9,36.2-34.3,57.1-30.5c22.9,3.8,40,19,45.7,41.9c1.9,7.6,5.7,11.4,11.4,13.3
	c5.7,0,11.4-7.6,15.2-11.4l51.4-83.8c7.6-11.4,3.8-24.8-7.6-30.5l-81.9-51.4c-17.1-11.4-21-26.7-13.3-38.1c3.8-5.7,9.5-11.4,19-13.3
	c13.3-3.8,22.9-11.4,28.6-22.9c11.4-19,9.5-47.6-19-64.8c-28.6-15.2-55.2-7.6-66.7,13.3c-5.7,9.5-9.5,22.9-5.7,36.2
	c1.9,7.6,0,17.1-3.8,22.9c-7.6,11.4-22.9,15.2-40,3.8l-80-49.5C332.8,1070.6,317.6,1072.5,311.9,1084L311.9,1084z"/>
</svg>
