<?xml version="1.0" encoding="utf-8"?>
<!-- Generator: Adobe Illustrator 18.1.0, SVG Export Plug-In . SVG Version: 6.00 Build 0)  -->
<svg version="1.1" id="Layer_1" xmlns="http://www.w3.org/2000/svg" xmlns:xlink="http://www.w3.org/1999/xlink" x="0px" y="0px"
	 viewBox="0 0 100 100" enable-background="new 0 0 100 100" xml:space="preserve">
<path d="M-124.4,146.6"/>
<g>
	<path fill="none" stroke="#63585E" stroke-width="3" stroke-miterlimit="10" d="M3.7,49.6h6.5c1.1,0,2.4-0.8,2.8-1.8l4.7-10.5
		c0.4-1,1.1-1,1.5,0l6.6,17c0.4,1,0.9,1,1.1-0.1l9.5-49.6c0.2-1.1,0.4-1.1,0.5,0l5.9,89.6c0.1,1.1,0.4,1.1,0.6,0.1l12.4-46.3
		c0.3-1.1,0.8-1.1,1.2-0.1l2.8,7.7c0.4,1,1,1,1.4,0l6-16.3c0.4-1,1.1-1.1,1.7-0.1l5,8.6c0.5,1,1.9,1.7,3,1.7h18.8"/>
</g>
<g>
	<circle fill="#63585E" cx="3.7" cy="49.6" r="3.4"/>
</g>
<g>
	<circle fill="#63585E" cx="95.7" cy="49.7" r="3.4"/>
</g>
</svg>
