<?xml version="1.0" encoding="utf-8"?>
<!-- Generator: Adobe Illustrator 18.1.0, SVG Export Plug-In . SVG Version: 6.00 Build 0)  -->
<svg version="1.1" id="Layer_1" xmlns="http://www.w3.org/2000/svg" xmlns:xlink="http://www.w3.org/1999/xlink" x="0px" y="0px"
	 viewBox="0 0 100 100" enable-background="new 0 0 100 100" xml:space="preserve">
<g id="set">
	<g>
		<path fill="#62585E" d="M60.3,76.1H40c-1.1,0-1.9-0.9-1.9-1.9v-1.4c0-3.1-2-6.2-4-9.5c-2.7-4.4-5.9-9.4-5.9-16
			c0-12,9.8-21.8,21.8-21.8s21.8,9.8,21.8,21.8c0,5.6-2.7,10.3-5.3,14.8c-2.2,3.7-4.2,7.3-4.2,10.7v1.4
			C62.2,75.3,61.4,76.1,60.3,76.1z M42,72.3h16.4c0.2-4.3,2.4-8.1,4.7-12.2c2.4-4.1,4.8-8.3,4.8-12.9c0-9.9-8-17.9-17.9-17.9
			s-17.9,8-17.9,17.9c0,5.5,2.7,9.8,5.3,14C39.5,64.7,41.8,68.3,42,72.3z"/>
	</g>
	<g>
		<path fill="#62585E" d="M58.9,84.2H41.5c-1.1,0-1.9-0.9-1.9-1.9s0.9-1.9,1.9-1.9h17.4c1.1,0,1.9,0.9,1.9,1.9S59.9,84.2,58.9,84.2z
			"/>
	</g>
	<g>
		<path fill="#62585E" d="M55.4,92H44.9c-1.1,0-1.9-0.9-1.9-1.9s0.9-1.9,1.9-1.9h10.6c1.1,0,1.9,0.9,1.9,1.9S56.5,92,55.4,92z"/>
	</g>
	<g>
		<path fill="#62585E" d="M50,18.6c-1.1,0-1.9-0.9-1.9-1.9V7C48.1,5.9,48.9,5,50,5c1.1,0,1.9,0.9,1.9,1.9v9.7
			C51.9,17.8,51.1,18.6,50,18.6z"/>
	</g>
	<g>
		<path fill="#62585E" d="M72,27.1c-0.5,0-1-0.2-1.4-0.6c-0.8-0.8-0.8-2,0-2.7l7.2-7.2c0.8-0.8,2-0.8,2.7,0c0.8,0.8,0.8,2,0,2.7
			l-7.2,7.2C73,27,72.5,27.1,72,27.1z"/>
	</g>
	<g>
		<path fill="#62585E" d="M21.2,78.3c-0.5,0-1-0.2-1.3-0.5c-0.8-0.7-0.8-2-0.1-2.7l7.2-7.5c0.7-0.8,2-0.8,2.7-0.1
			c0.8,0.7,0.8,2,0.1,2.7l-7.2,7.5C22.2,78.1,21.7,78.3,21.2,78.3z"/>
	</g>
	<g>
		<path fill="#62585E" d="M90.4,49.1H81c-1.1,0-1.9-0.9-1.9-1.9c0-1.1,0.9-1.9,1.9-1.9h9.4c1.1,0,1.9,0.9,1.9,1.9
			C92.3,48.3,91.4,49.1,90.4,49.1z"/>
	</g>
	<g>
		<path fill="#62585E" d="M19.3,49.1h-9.2c-1.1,0-1.9-0.9-1.9-1.9c0-1.1,0.9-1.9,1.9-1.9h9.2c1.1,0,1.9,0.9,1.9,1.9
			C21.3,48.3,20.4,49.1,19.3,49.1z"/>
	</g>
	<g>
		<path fill="#62585E" d="M28.2,27.3c-0.5,0-1-0.2-1.4-0.6L20,19.9c-0.8-0.8-0.8-2,0-2.7s2-0.8,2.7,0l6.8,6.8c0.8,0.8,0.8,2,0,2.7
			C29.2,27.1,28.7,27.3,28.2,27.3z"/>
	</g>
	<g>
		<path fill="#62585E" d="M79,77.8c-0.5,0-1-0.2-1.4-0.6l-6.8-6.8c-0.8-0.8-0.8-2,0-2.7c0.8-0.8,2-0.8,2.7,0l6.8,6.8
			c0.8,0.8,0.8,2,0,2.7C80,77.6,79.5,77.8,79,77.8z"/>
	</g>
	<g>
		<path fill="#62585E" d="M42,56.9c-0.5,0-1-0.2-1.4-0.6c-5.2-5.2-5.2-13.6,0-18.7c5.2-5.2,13.6-5.2,18.7,0c0.8,0.8,0.8,2,0,2.7
			c-0.8,0.8-2,0.8-2.7,0c-3.7-3.7-9.6-3.7-13.3,0c-3.7,3.7-3.7,9.6,0,13.3c0.8,0.8,0.8,2,0,2.7C43,56.7,42.5,56.9,42,56.9z"/>
	</g>
</g>
</svg>
