<?xml version="1.0" encoding="utf-8"?>
<!-- Generator: Adobe Illustrator 18.1.0, SVG Export Plug-In . SVG Version: 6.00 Build 0)  -->
<svg version="1.1" id="Layer_1" xmlns="http://www.w3.org/2000/svg" xmlns:xlink="http://www.w3.org/1999/xlink" x="0px" y="0px"
	 viewBox="0 0 100 100" enable-background="new 0 0 100 100" xml:space="preserve">
<path fill="none" stroke="#62585E" stroke-width="3" stroke-miterlimit="10" d="M59.1,13.6"/>
<path fill="none" stroke="#62585E" stroke-width="3" stroke-miterlimit="10" d="M45.5,6.6c7.2,6.8,6,16.2,6,16.2
	c-4.1,2.3-7.4,9.8-8.8,12.7c-0.9-2-5.9-5.8-5.9-5.8S34.4,15.1,45.5,6.6z"/>
<path fill="none" stroke="#62585E" stroke-width="3" stroke-miterlimit="10" d="M28.3,25"/>
<path fill="none" stroke="#62585E" stroke-width="3" stroke-miterlimit="10" d="M36.8,29.8c0,0-4.8-4-8.5-4.8
	c0.1,1.8,0.9,12.8,5.8,19.6c0.6,1.2-1.1,7,4.8,19.4c1.1,6,1.7,19.9,20.2,29.2c2.4-2.5,17.9-18.8,3.7-36.5c0.4-3,0.8-8.6-5.5-16.6
	c0.2-2.6,0.6-11.2-5.8-17.3"/>
<path fill="none" stroke="#62585E" stroke-width="3" stroke-miterlimit="10" d="M59.1,93.2c0,0-6.3-10.9-5.3-20.6s9-15.9,9-15.9"/>
<path fill="none" stroke="#62585E" stroke-width="3" stroke-miterlimit="10" d="M53.7,72.6c0,0-9.7-8.4-14.8-8.6"/>
<path fill="none" stroke="#62585E" stroke-width="3" stroke-miterlimit="10" d="M49.3,69.2c0,0-1.7-6.2-0.9-13.3
	c0.7-5.5,2.9-11.6,8.7-15.7"/>
<path fill="none" stroke="#62585E" stroke-width="3" stroke-miterlimit="10" d="M34.1,44.6c0,0,9,3.9,14.1,10.2"/>
<path fill="none" stroke="#62585E" stroke-width="3" stroke-miterlimit="10" d="M42.9,35"/>
<path fill="none" stroke="#62585E" stroke-width="3" stroke-miterlimit="10" d="M42.7,35.6c0,0-3.3,7.7,1.9,15.5"/>
</svg>
